<svg version="1.1" id="Layer_1" xmlns="http://www.w3.org/2000/svg" xmlns:xlink="http://www.w3.org/1999/xlink" x="0px" y="0px"
	 width="100%" viewBox="0 0 500 500" enable-background="new 0 0 500 500" xml:space="preserve">
<path fill="none" opacity="none" stroke="none" 
	d="
M267.000000,501.000000 
	C178.000015,501.000000 89.500046,501.000000 1.000047,501.000000 
	C1.000032,334.333405 1.000032,167.666794 1.000016,1.000137 
	C167.666565,1.000091 334.333130,1.000091 500.999756,1.000046 
	C500.999847,167.666519 500.999847,334.333038 500.999939,500.999786 
	C423.166656,501.000000 345.333344,501.000000 267.000000,501.000000 
M118.929375,98.453217 
	C118.631355,98.276596 118.333344,98.099983 117.861778,97.459724 
	C117.659126,97.181450 117.393028,96.992500 116.817230,96.243347 
	C111.895859,92.467972 106.974480,88.692596 102.016212,84.982742 
	C102.016212,84.982742 102.081909,85.019302 101.921974,84.500084 
	C101.617180,84.341164 101.312386,84.182243 100.828262,83.341202 
	C95.331902,76.901085 88.242004,74.941223 79.699158,75.178215 
	C73.806458,75.518684 67.913765,75.859154 61.263962,76.046227 
	C60.175232,76.334785 58.948555,77.102203 58.020008,76.834717 
	C51.660343,75.002640 50.078991,79.162460 48.209698,83.945580 
	C47.445740,84.591339 46.681786,85.237099 45.208057,85.940903 
	C40.599293,90.130661 35.802433,94.138908 31.486694,98.611412 
	C30.031935,100.119011 29.798126,102.804764 28.292791,105.336929 
	C27.316439,109.788933 27.929794,113.482910 32.998219,115.905029 
	C33.515354,128.405365 35.467880,140.307709 41.699669,151.682892 
	C47.948891,163.089890 55.120815,173.414612 64.205528,181.983078 
	C58.568279,186.945175 52.337105,191.393967 47.471901,197.023315 
	C43.177505,201.992188 40.406956,208.278076 36.353584,214.453064 
	C35.297886,222.732208 34.242188,231.011368 32.761509,239.902863 
	C32.553997,241.600204 32.346481,243.297531 32.014626,245.872070 
	C32.334877,250.903397 32.225117,256.008759 33.075813,260.948730 
	C34.362923,268.422913 36.318890,275.781891 38.009052,283.948792 
	C38.977337,286.342896 39.945621,288.737030 40.953091,291.907013 
	C43.649666,297.006561 46.346237,302.106079 49.133984,307.619995 
	C49.305958,307.874115 49.544968,308.013306 49.947720,308.756012 
	C53.037968,315.020477 58.662403,315.557373 64.556938,314.904297 
	C69.615616,314.343750 70.427155,309.762756 71.432541,306.048370 
	C72.985931,300.309418 73.757324,294.363739 75.048485,288.547455 
	C76.322250,282.809570 77.252975,277.019409 82.391457,272.867188 
	C86.300255,269.708618 89.542435,265.725128 93.583183,261.938080 
	C93.732925,261.634705 93.882660,261.331299 94.000839,261.000000 
	C94.000839,261.000000 94.035881,261.024048 94.658218,260.725677 
	C100.666672,255.762436 104.448578,249.311523 106.993073,242.071671 
	C107.791901,239.798752 108.321770,237.431290 109.266739,235.725388 
	C113.494316,239.846100 117.721886,243.966812 122.207176,248.708786 
	C131.886139,256.476257 141.207977,264.753845 151.352737,271.855927 
	C160.069244,277.958130 169.725769,282.717590 179.062973,288.948303 
	C179.881531,302.787384 183.655899,316.019897 189.167282,328.516876 
	C195.044708,341.843811 202.031906,354.729950 209.241806,367.406311 
	C215.915054,379.139130 224.762344,389.497162 235.950775,396.999664 
	C245.688019,403.529053 256.602966,408.302124 267.676361,414.180145 
	C275.843506,417.139618 283.939362,420.320129 292.201416,422.985443 
	C298.309052,424.955719 304.562744,427.132385 310.878021,427.639252 
	C319.510986,428.332184 328.265259,427.355042 336.965393,427.413422 
	C345.628693,427.471558 353.427399,419.010254 351.975403,410.255249 
	C350.058502,407.075348 348.563782,403.521149 346.141693,400.789154 
	C340.055389,393.924225 333.431458,387.538940 327.246063,380.757996 
	C321.040649,373.955017 313.762634,367.657898 309.356995,359.793365 
	C302.257446,347.119873 297.129761,333.341736 292.031616,320.015076 
	C297.719391,320.294830 303.407196,320.574585 309.878113,321.039001 
	C312.835052,321.132568 315.795349,321.166473 318.748322,321.331024 
	C327.155884,321.799530 335.560516,322.321228 344.823395,322.977478 
	C348.204285,323.272736 351.585144,323.567993 355.788391,323.972321 
	C357.163391,324.021423 358.538391,324.070526 360.434296,324.766602 
	C365.275848,324.889130 370.117401,325.011658 375.140594,325.610352 
	C375.430603,325.776428 375.720612,325.942505 376.046204,326.873474 
	C377.078339,329.593079 378.110474,332.312683 379.223541,335.741608 
	C390.201569,355.824280 407.940277,363.698547 430.735077,363.994507 
	C432.323212,364.643463 433.966492,365.184082 435.490479,365.959198 
	C444.771759,370.679932 453.397705,376.944794 464.740631,376.113037 
	C472.688263,375.530243 475.548248,371.867004 472.976562,363.263519 
	C470.906189,360.938965 469.140259,358.213074 466.706879,356.367004 
	C460.089539,351.346832 456.914948,345.056335 455.645264,336.689423 
	C454.168396,326.956909 448.615662,318.948059 439.234467,314.631378 
	C431.663818,311.147797 423.866638,308.156494 416.010834,304.211212 
	C413.936859,300.474518 411.862885,296.737823 409.785583,292.316406 
	C405.184174,285.784454 400.162659,279.502350 396.090363,272.655701 
	C391.277161,264.563263 387.492981,255.865936 382.883331,247.643509 
	C376.794678,236.782959 370.490601,226.035156 363.984528,215.419464 
	C359.740265,208.494202 355.227417,201.700226 350.382446,195.183823 
	C342.119812,184.070724 333.057495,173.745056 322.554565,164.509674 
	C314.204865,157.167694 305.950684,149.978210 295.646759,144.232391 
	C293.760406,143.479538 291.874023,142.726700 289.575165,141.407745 
	C273.179535,133.187012 255.856201,127.876526 237.762268,125.075043 
	C235.145401,124.669876 232.138062,125.673698 229.805603,124.761658 
	C223.757736,122.396774 217.627731,121.797028 211.228210,121.792290 
	C198.534637,121.782898 185.841309,121.410461 172.464844,121.069221 
	C170.980453,121.111092 169.496078,121.152962 167.200027,121.115791 
	C163.526581,121.773193 159.804688,122.235306 156.190552,123.131813 
	C150.123047,124.636894 144.124100,126.418442 137.832443,127.406151 
	C134.575851,122.250061 131.319244,117.093979 127.954613,111.235847 
	C124.991661,107.131737 122.028717,103.027626 119.034767,98.975975 
	C119.034767,98.975975 119.094505,98.963989 118.929375,98.453217 
z"/>
<path fill="#8CDECE" opacity="1.000000" stroke="none" 
	d="
M291.169128,320.030243 
	C297.129761,333.341736 302.257446,347.119873 309.356995,359.793365 
	C313.762634,367.657898 321.040649,373.955017 327.246063,380.757996 
	C333.431458,387.538940 340.055389,393.924225 346.141693,400.789154 
	C348.563782,403.521149 350.058502,407.075348 351.533325,410.682526 
	C347.424438,412.389435 343.757690,413.669037 340.009796,414.595581 
	C336.310120,409.407318 333.084015,404.183289 328.873779,399.934387 
	C327.260590,398.306396 322.952820,397.856018 320.701263,398.814636 
	C318.824799,399.613525 317.382324,403.179596 317.138855,405.656830 
	C316.773651,409.373047 317.625793,413.208893 317.562317,416.996521 
	C316.103363,417.000458 315.042297,417.001709 313.969299,416.586975 
	C312.145752,411.111511 311.134033,405.539734 308.309143,401.129211 
	C305.160767,396.213593 299.654541,397.579681 297.866608,403.242889 
	C296.877655,406.375427 296.570770,409.723328 295.621033,412.828674 
	C293.849945,412.455719 292.414154,412.228241 291.050354,411.591858 
	C291.019287,406.659302 291.817017,401.871948 290.589142,397.677521 
	C288.993469,392.226898 283.457245,391.539093 279.742462,395.920074 
	C277.751129,398.268585 276.526428,401.267181 274.627441,403.977722 
	C273.861359,403.988800 273.423523,403.994568 272.999756,403.542725 
	C273.025452,400.753143 273.181000,398.411224 273.020294,396.091217 
	C272.623901,390.368011 269.826538,385.913025 266.461151,386.172577 
	C261.252899,386.574219 260.967285,391.167053 259.482361,394.911011 
	C257.120911,393.803192 254.935699,392.930725 253.137131,391.553345 
	C246.152878,386.204651 239.146011,380.868591 232.415085,375.209595 
	C218.896606,363.844025 207.607697,350.380585 200.029007,334.522736 
	C190.736832,315.079529 185.792572,294.108124 182.007126,272.923553 
	C180.585007,264.964844 179.288132,256.983765 177.935959,248.566284 
	C178.005371,240.777267 178.072998,233.434830 178.545441,226.061462 
	C193.788406,223.167801 208.536331,222.312241 223.222641,228.256378 
	C228.112213,231.642395 233.012589,234.478424 237.376419,237.982620 
	C247.483444,246.098663 254.183350,256.993408 261.019073,267.783508 
	C263.161041,271.164581 266.192749,273.981903 268.994385,277.367523 
	C275.514191,290.717804 281.826019,303.773132 288.248657,316.773651 
	C288.870758,318.032776 290.179260,318.952789 291.169128,320.030243 
M325.328583,392.630249 
	C326.387390,393.663910 327.297821,395.274811 328.540222,395.594177 
	C330.348083,396.058899 332.395111,395.593231 334.340179,395.524292 
	C333.599792,393.972473 332.859436,392.420685 331.860352,390.240234 
	C329.632050,389.375061 327.403717,388.509888 325.175415,387.644714 
	C325.129089,389.102692 325.082764,390.560669 325.328583,392.630249 
M295.328217,386.516083 
	C295.050232,385.120911 295.255707,383.149261 294.405579,382.436310 
	C291.611908,380.093384 288.582581,377.885895 285.298279,376.379913 
	C284.516022,376.021240 282.389832,378.593506 280.456207,380.395294 
	C279.624542,385.535248 283.058228,387.896942 286.940521,389.360809 
	C289.813721,390.444153 293.428619,391.646118 295.328217,386.516083 
M320.008179,391.231537 
	C318.932739,384.693176 313.211517,383.927765 308.158783,382.088959 
	C309.627533,377.164856 307.531311,374.020355 303.477386,371.751801 
	C300.790405,370.248169 298.254059,369.353424 296.108856,372.492584 
	C293.866608,375.773712 295.605865,378.403290 298.092987,380.179779 
	C300.419769,381.841736 303.342804,382.668945 304.859741,383.350037 
	C305.636780,386.713623 306.254425,389.387177 307.273468,392.628448 
	C309.001282,393.824188 310.596100,395.320953 312.483734,396.154938 
	C316.802979,398.063141 318.972260,396.748413 320.008179,391.231537 
M279.351898,354.505066 
	C283.185028,352.558319 286.412720,349.716949 284.679810,345.187286 
	C280.782532,335.000122 276.270233,325.048248 271.966797,314.245544 
	C270.967560,311.633759 270.048645,308.987793 268.954346,306.416473 
	C265.342316,297.928986 261.666870,289.468445 257.885925,280.289001 
	C252.632278,267.724060 244.176712,257.492615 233.950836,248.802032 
	C228.867020,244.481491 223.032730,241.013474 215.664886,244.236404 
	C206.500168,248.245346 202.161697,255.963577 200.155823,264.993073 
	C196.945038,279.446411 199.825577,293.401703 205.299042,307.662170 
	C205.800476,309.061859 206.166046,310.529358 206.825104,311.850403 
	C211.515289,321.251648 216.265472,330.622955 221.127609,340.692169 
	C226.681534,347.890503 231.968002,355.319000 237.889923,362.200623 
	C241.429993,366.314331 246.506287,369.348724 252.059723,367.199310 
	C257.997284,364.901184 265.435883,362.842468 261.731110,351.836975 
	C267.159393,355.504517 271.325378,357.717041 275.683197,355.656738 
	C275.379181,357.786560 274.079559,360.684235 274.996155,361.872681 
	C276.506104,363.830536 279.336670,365.451263 281.816223,365.815979 
	C285.311066,366.330048 287.002899,363.201569 284.905731,360.223328 
	C283.449432,358.155212 280.997528,356.788208 279.351898,354.505066 
M272.835907,375.722107 
	C272.015839,374.918823 271.303192,373.623840 270.352997,373.416229 
	C268.465424,373.003784 266.384674,372.914001 264.528442,373.332550 
	C264.089264,373.431580 263.588806,376.929413 264.207031,377.385468 
	C266.396606,379.000671 269.058441,379.975708 271.541351,381.193359 
	C272.088440,379.587097 272.635559,377.980835 272.835907,375.722107 
M315.565094,375.017975 
	C314.858612,376.482056 313.257416,378.319763 313.673126,379.315338 
	C314.187927,380.548279 316.317657,381.548004 317.862091,381.738739 
	C318.739349,381.847046 319.841125,380.137360 320.841797,379.246399 
	C319.347565,377.833344 317.853333,376.420288 315.565094,375.017975 
M296.801666,358.388306 
	C293.305542,361.224182 295.490723,363.495483 297.924286,364.992401 
	C298.910309,365.598907 300.985931,364.434052 302.565735,364.075226 
	C301.518768,362.291901 300.543945,360.458740 299.372406,358.761414 
	C299.091248,358.354095 298.156372,358.397980 296.801666,358.388306 
M286.229919,367.962311 
	C287.278931,369.480743 288.327972,370.999176 289.377014,372.517609 
	C290.182739,371.475616 291.854492,370.175018 291.634796,369.439240 
	C290.924072,367.059265 289.288849,365.470032 286.229919,367.962311 
z"/>
<path fill="#30B5B1" opacity="1.000000" stroke="none" 
	d="
M296.068909,144.819458 
	C305.950684,149.978210 314.204865,157.167694 322.554565,164.509674 
	C333.057495,173.745056 342.119812,184.070724 350.382446,195.183823 
	C355.227417,201.700226 359.740265,208.494202 363.984528,215.419464 
	C370.490601,226.035156 376.794678,236.782959 382.883331,247.643509 
	C387.492981,255.865936 391.277161,264.563263 396.090363,272.655701 
	C400.162659,279.502350 405.184174,285.784454 409.512207,292.833496 
	C402.817871,303.513733 393.426880,307.669189 381.785370,305.855438 
	C376.770966,305.074219 372.018005,302.614899 367.182129,300.520874 
	C367.700226,296.846405 368.507996,293.576599 368.584869,290.289703 
	C368.688049,285.880402 370.857239,285.265198 374.811340,284.822083 
	C381.920074,284.025452 388.902435,282.101105 395.937592,280.647919 
	C395.841248,280.227722 395.744904,279.807495 395.648529,279.387299 
	C389.254944,279.925049 382.870056,280.704895 376.465424,280.934692 
	C369.618744,281.180389 369.502991,280.524017 367.886047,274.066071 
	C366.165527,267.194336 363.757019,260.494873 361.648926,253.720200 
	C361.087555,253.886536 360.526184,254.052887 359.964844,254.219223 
	C360.193237,255.642868 360.393951,257.071625 360.654327,258.489380 
	C363.555908,274.289703 364.545441,290.098083 360.517334,306.015625 
	C355.944244,306.519989 351.515717,308.014740 347.584076,307.177124 
	C327.865234,302.976227 316.254486,290.357513 311.860291,270.466858 
	C313.241394,263.916931 314.979431,257.824402 315.872803,251.610428 
	C317.479736,240.433243 317.294708,240.578033 328.727325,238.840881 
	C333.184357,238.163651 337.491425,236.499802 341.866821,235.285339 
	C341.745453,234.876846 341.624084,234.468353 341.502716,234.059860 
	C336.429321,234.682327 331.371307,235.563599 326.278931,235.866516 
	C318.675629,236.318787 317.594391,235.311066 316.448700,228.009064 
	C318.189209,227.685776 320.200714,227.814102 320.867676,226.929138 
	C327.624908,217.963043 334.009369,208.713699 340.851105,199.814972 
	C343.023468,196.989426 343.412567,194.609222 341.822205,191.649261 
	C336.363007,181.488724 326.925751,175.514069 317.824402,168.714447 
	C311.417206,163.956741 305.189301,159.481018 298.765533,154.859589 
	C298.328918,154.490799 298.119232,154.241592 297.882141,153.618622 
	C296.918915,151.394928 295.831512,149.577454 295.201263,147.613266 
	C294.957336,146.853058 295.749023,145.760559 296.068909,144.819458 
M353.802521,209.815231 
	C352.330627,206.786179 350.858765,203.757111 349.386902,200.728058 
	C349.119751,200.868561 348.852600,201.009079 348.585480,201.149582 
	C351.389374,210.566391 354.193298,219.983185 356.997192,229.399979 
	C357.281128,229.358505 357.565033,229.317032 357.848969,229.275558 
	C356.576050,223.039795 355.303131,216.804031 353.802521,209.815231 
M359.323090,251.164520 
	C359.422516,251.070328 359.521942,250.976135 359.621368,250.881927 
	C359.521515,250.898102 359.421631,250.914276 359.323090,251.164520 
M345.108337,233.358948 
	C345.045532,233.460648 344.982727,233.562332 344.919952,233.664017 
	C345.017883,233.622559 345.115814,233.581100 345.108337,233.358948 
z"/>
<path fill="#89DDCD" opacity="1.000000" stroke="none" 
	d="
M45.917831,85.882858 
	C46.681786,85.237099 47.445740,84.591339 48.802010,84.156677 
	C49.957359,85.981247 50.520401,87.594711 50.984764,89.525772 
	C49.769703,91.279655 48.595669,92.675247 47.547291,94.159576 
	C43.803150,99.460693 43.714302,107.408325 47.952469,110.097153 
	C53.048576,113.330284 58.832447,114.712860 65.314072,113.191589 
	C67.366180,113.525444 69.064339,113.732384 71.187500,113.954575 
	C74.123283,113.077614 76.673103,112.280212 79.133987,111.266846 
	C81.657158,110.227837 83.987061,108.532005 86.589409,107.911270 
	C92.231033,106.565590 99.054611,107.705765 101.482391,100.154099 
	C103.084656,101.134392 104.399513,101.947235 105.714371,102.760071 
	C106.134331,101.511368 106.554283,100.262665 106.983505,98.622238 
	C105.346214,93.792747 103.699654,89.354988 102.053101,84.917229 
	C106.974480,88.692596 111.895859,92.467972 116.608200,96.735107 
	C111.471695,99.230515 113.404160,103.526787 113.009857,107.419083 
	C111.929169,109.670937 111.185959,111.761650 109.915787,113.457726 
	C106.405281,118.145264 106.600204,119.848137 111.770126,122.440262 
	C117.857903,125.492607 124.046051,128.344788 130.453369,131.409393 
	C132.229614,126.962906 130.528427,121.976196 128.935852,116.942551 
	C128.429596,115.342415 128.341888,113.609856 128.062653,111.937889 
	C131.319244,117.093979 134.575851,122.250061 137.917694,128.100372 
	C137.990906,129.516037 137.978867,130.237503 137.715729,131.292892 
	C137.528946,136.378326 137.646439,141.129883 137.641846,145.881317 
	C137.637695,150.176056 137.500122,154.470673 137.258728,159.089249 
	C136.985077,159.878418 136.874115,160.343658 136.422363,160.875214 
	C135.205627,161.412827 134.287399,161.819931 133.459900,162.364853 
	C114.693726,174.722534 94.579063,175.184494 74.405083,167.454666 
	C58.396065,161.320694 50.272800,147.220123 44.310852,132.061707 
	C42.218182,126.741028 41.474827,120.889656 40.417206,115.379715 
	C42.980743,117.624855 45.379799,119.645554 47.475739,121.942810 
	C51.956501,126.853958 57.664349,127.754967 62.186954,125.057816 
	C58.465794,123.499550 53.660736,122.005974 49.405678,119.556839 
	C45.310917,117.199966 41.784988,113.854805 37.886818,110.739655 
	C37.572414,110.263039 37.314381,110.087578 36.994812,110.004715 
	C36.999214,110.000366 36.988373,110.011826 37.036263,109.607925 
	C40.028713,101.430305 42.973270,93.656578 45.917831,85.882858 
M98.022583,115.275551 
	C97.757736,114.442711 97.492889,113.609863 96.919983,112.091820 
	C92.497414,108.975494 87.619728,108.960426 82.290802,111.992897 
	C82.237221,112.355530 82.183632,112.718163 81.674309,112.355728 
	C75.724045,116.435829 75.615784,121.555321 81.560127,125.120682 
	C83.663132,126.382042 86.065987,127.812798 88.375420,127.891556 
	C91.274704,127.990440 95.624893,127.703720 96.803612,125.910400 
	C98.445267,123.412758 97.727837,119.364525 98.022583,115.275551 
M125.447365,134.084152 
	C121.764534,131.941010 118.264290,129.336182 114.346642,127.786781 
	C110.559105,126.288857 107.431870,128.703049 106.963326,132.711716 
	C106.192215,139.309158 108.067947,145.322784 112.155945,150.352676 
	C113.418411,151.906021 116.571869,153.011444 118.589897,152.680069 
	C129.429550,150.900085 132.333374,143.424164 125.447365,134.084152 
M80.604156,137.004349 
	C78.152275,134.167862 75.919273,131.090073 73.162651,128.589523 
	C71.621803,127.191841 69.211906,126.752213 67.193619,125.880867 
	C66.384125,128.118011 64.273010,131.010971 65.008080,132.469910 
	C67.254288,136.928131 70.251595,141.160965 73.690773,144.784790 
	C74.950447,146.112106 78.910591,146.520645 80.506348,145.527924 
	C83.439117,143.703430 84.021957,140.443039 80.604156,137.004349 
M103.020813,145.728104 
	C101.495651,139.652496 98.171898,136.232361 94.597130,137.304718 
	C90.773544,138.451752 89.566948,141.498611 90.131927,145.088318 
	C90.743027,148.971008 92.784790,151.896912 97.180634,152.060059 
	C100.893463,152.197861 103.208557,150.616577 103.020813,145.728104 
z"/>
<path fill="#8CDECE" opacity="1.000000" stroke="none" 
	d="
M93.081207,262.108673 
	C89.542435,265.725128 86.300255,269.708618 82.391457,272.867188 
	C77.252975,277.019409 76.322250,282.809570 75.048485,288.547455 
	C73.757324,294.363739 72.985931,300.309418 71.432541,306.048370 
	C70.427155,309.762756 69.615616,314.343750 64.556938,314.904297 
	C58.662403,315.557373 53.037968,315.020477 50.296200,308.427307 
	C56.476231,309.787384 58.289692,308.222748 57.218586,302.205811 
	C56.908752,300.465302 56.303726,298.656921 55.350258,297.195251 
	C54.751095,296.276733 53.249622,295.508301 52.156700,295.513184 
	C51.490566,295.516144 50.429996,297.039337 50.243912,298.012970 
	C49.664780,301.043030 49.418304,304.136658 49.042809,307.205627 
	C46.346237,302.106079 43.649666,297.006561 41.290489,291.514221 
	C49.507626,295.147552 52.361027,293.922668 53.680744,285.201996 
	C54.316532,281.000671 54.335861,276.529297 53.592979,272.366028 
	C53.183163,270.069336 50.617954,268.157257 48.682449,266.047150 
	C47.883709,266.028961 47.426952,266.035400 46.744110,266.037109 
	C46.518024,266.032379 46.071041,266.101288 45.768082,266.255554 
	C43.666092,269.967072 41.867058,273.524353 40.029999,277.449371 
	C39.324867,279.608002 38.657757,281.398926 37.990646,283.189819 
	C36.318890,275.781891 34.362923,268.422913 33.075813,260.948730 
	C32.225117,256.008759 32.334877,250.903397 32.411995,245.380951 
	C34.825500,242.339615 36.998631,239.896942 38.831337,237.221100 
	C48.108418,223.676331 60.837536,215.645538 77.234406,213.251312 
	C89.911034,222.180649 96.699783,233.854950 95.926704,249.293243 
	C95.729820,253.225220 94.688965,257.114929 94.035881,261.024048 
	C94.035881,261.024048 94.000839,261.000000 93.812653,261.151123 
	C93.369179,261.521057 93.188095,261.789856 93.081207,262.108673 
M65.418953,308.779449 
	C69.873016,306.344727 71.833771,298.787262 68.634438,295.306671 
	C67.850327,294.453613 65.415215,294.108154 64.368065,294.680328 
	C59.642124,297.262604 59.941765,305.893921 65.418953,308.779449 
M61.571495,282.305847 
	C59.021095,278.783813 57.404747,278.681671 55.982185,282.372864 
	C55.138485,284.562103 54.711376,287.332428 55.309284,289.508331 
	C55.705555,290.950470 58.162880,292.421509 59.867168,292.658203 
	C60.721039,292.776794 62.587963,290.274292 62.851540,288.758179 
	C63.164169,286.959930 62.243855,284.947357 61.571495,282.305847 
M67.135338,286.983093 
	C68.265320,287.471741 69.395294,287.960419 70.525276,288.449066 
	C71.301605,286.572449 72.799156,284.644440 72.670013,282.832336 
	C72.511826,280.612732 70.991798,278.490204 70.060577,276.325684 
	C69.025551,276.955688 67.224556,277.458496 67.095016,278.238831 
	C66.656311,280.881500 66.809471,283.622437 67.135338,286.983093 
M58.227871,268.955200 
	C58.314148,269.923157 58.087852,271.094849 58.556416,271.813599 
	C59.355713,273.039734 60.447113,274.508789 61.696095,274.850037 
	C62.476837,275.063385 64.765732,273.209381 64.652313,272.609039 
	C64.282089,270.649414 63.299057,268.708832 62.112854,267.080658 
	C61.871838,266.749878 59.716755,267.813599 58.227871,268.955200 
M51.876724,253.523254 
	C52.332870,255.521545 52.661560,257.567841 53.377163,259.468414 
	C53.489620,259.767090 56.165817,259.647156 56.267887,259.305664 
	C56.651623,258.021851 57.004387,256.167664 56.349541,255.274216 
	C55.499382,254.114319 53.676117,253.667709 51.876724,253.523254 
z"/>
<path fill="#24A09E" opacity="1.000000" stroke="none" 
	d="
M311.836517,270.869507 
	C316.254486,290.357513 327.865234,302.976227 347.584076,307.177124 
	C351.515717,308.014740 355.944244,306.519989 360.529480,306.416565 
	C358.932220,312.442719 356.949127,318.152985 354.966034,323.863251 
	C351.585144,323.567993 348.204285,323.272736 344.302734,322.562744 
	C340.205048,320.600464 336.530151,319.244232 333.067596,317.472931 
	C316.286591,308.888245 302.591431,296.431549 289.830658,282.804047 
	C286.323181,279.058350 282.597992,275.516449 278.916199,271.553833 
	C274.670471,266.808716 270.481262,262.390839 266.231140,257.607544 
	C262.726929,252.223114 259.283630,247.204086 256.107178,241.930328 
	C258.254242,236.780487 260.134460,231.885406 262.266846,227.229431 
	C263.134399,228.824646 263.728210,230.191055 264.368500,231.535324 
	C273.384491,250.464462 287.579834,262.338318 308.829132,262.296265 
	C305.852509,270.443817 302.902924,278.206207 299.746643,286.169342 
	C299.349640,286.905579 299.159332,287.441040 298.880463,288.023651 
	C298.791901,288.070770 298.794128,288.333038 298.794128,288.333038 
	C298.794128,288.333038 299.022461,288.029663 299.238159,287.838501 
	C299.657318,287.119232 299.860779,286.591187 300.404541,286.001831 
	C302.307831,284.334778 304.108063,282.896118 305.382050,281.086884 
	C307.698547,277.797241 309.702271,274.287415 311.836517,270.869507 
z"/>
<path fill="#8CDECE" opacity="1.000000" stroke="none" 
	d="
M379.142609,335.032288 
	C378.110474,332.312683 377.078339,329.593079 376.309082,326.722168 
	C380.547699,327.392639 384.491608,328.637970 388.506439,328.939911 
	C395.022308,329.429901 400.220886,330.589203 403.692383,337.481598 
	C406.515259,343.086273 411.473419,347.767517 416.054840,352.279297 
	C418.959778,355.140076 422.909637,356.939850 426.390869,359.215454 
	C426.843353,358.694092 427.295807,358.172760 427.748291,357.651398 
	C418.390686,351.562347 412.997528,342.488831 408.084564,332.699677 
	C407.680603,331.914734 407.348816,331.429657 407.004913,330.973938 
	C406.992798,331.003296 407.054901,331.016785 407.080780,330.672913 
	C406.747925,329.540131 406.389191,328.751251 406.018555,327.981018 
	C406.006653,327.999695 406.048706,328.002106 406.096252,327.586853 
	C406.090576,325.781738 406.037323,324.391937 406.405273,323.001831 
	C410.293396,321.759216 415.219177,321.525879 416.922333,319.063507 
	C420.421844,314.004028 424.090637,314.617188 428.449707,316.341156 
	C432.296356,317.862488 436.114258,319.514984 439.774323,321.434662 
	C444.196655,323.754120 447.165771,327.185852 448.435364,332.345428 
	C449.695282,337.465912 451.412872,342.609497 453.850525,347.260376 
	C455.712677,350.813263 459.011383,353.613190 461.447540,356.484619 
	C460.734375,358.381744 459.237122,360.887787 459.720276,361.357727 
	C461.144196,362.742737 464.673706,364.462952 465.044586,364.033905 
	C467.937103,360.687714 470.522125,363.655243 473.175934,363.934052 
	C475.548248,371.867004 472.688263,375.530243 464.740631,376.113037 
	C453.397705,376.944794 444.771759,370.679932 435.490479,365.959198 
	C433.966492,365.184082 432.323212,364.643463 430.089478,363.671204 
	C428.376678,362.927216 427.344116,362.332367 426.237061,362.112335 
	C412.441925,359.370300 400.449799,353.186218 390.072052,343.683990 
	C386.653992,340.554291 382.798218,337.902557 379.142609,335.032288 
M466.772156,370.120697 
	C468.575592,370.014954 470.378998,369.909180 472.182434,369.803406 
	C471.686554,368.730347 471.026031,366.693451 470.722321,366.745331 
	C469.105804,367.021454 467.578705,367.820740 465.426971,368.009460 
	C463.824219,367.166626 462.257355,365.763885 460.607361,365.658051 
	C459.286560,365.573364 457.864685,367.064758 456.487671,367.856659 
	C458.190460,369.878601 459.523102,372.658295 461.695282,373.719391 
	C464.092468,374.890381 466.072662,373.113190 466.772156,370.120697 
M423.333923,342.586914 
	C424.936768,344.261475 426.430145,346.060547 428.164185,347.585968 
	C432.418854,351.328766 442.737854,350.058380 445.903290,345.329102 
	C446.480652,344.466553 446.577820,342.620850 446.035767,341.791962 
	C444.247467,339.057281 442.064423,336.580658 439.893494,333.329285 
	C435.902649,330.046387 432.247589,326.124817 427.768738,323.770172 
	C425.755188,322.711578 421.149475,323.890991 419.452454,325.689545 
	C417.795044,327.446136 417.512268,331.484772 418.152527,334.155701 
	C418.834076,336.998688 421.306732,339.412323 423.333923,342.586914 
z"/>
<path fill="#4DC1AD" opacity="1.000000" stroke="none" 
	d="
M40.115341,115.280609 
	C41.474827,120.889656 42.218182,126.741028 44.310852,132.061707 
	C50.272800,147.220123 58.396065,161.320694 74.405083,167.454666 
	C94.579063,175.184494 114.693726,174.722534 133.459900,162.364853 
	C134.287399,161.819931 135.205627,161.412827 136.508224,160.942078 
	C136.934860,160.942612 137.099228,161.071518 137.024551,161.416077 
	C131.522675,169.066223 126.309441,176.547012 120.550110,183.580627 
	C118.582764,185.983261 115.244545,187.263367 112.108337,188.936737 
	C102.118645,188.552734 92.553284,188.288376 82.647591,187.872803 
	C78.767105,186.431824 75.245674,185.087082 71.679939,183.872452 
	C69.463020,183.117294 67.178993,182.559143 64.925095,181.912567 
	C55.120815,173.414612 47.948891,163.089890 41.699669,151.682892 
	C35.467880,140.307709 33.515354,128.405365 33.105255,115.181152 
	C35.513309,114.731712 37.814327,115.006165 40.115341,115.280609 
z"/>
<path fill="#73D1C0" opacity="1.000000" stroke="none" 
	d="
M177.934174,249.012894 
	C179.288132,256.983765 180.585007,264.964844 182.007126,272.923553 
	C185.792572,294.108124 190.736832,315.079529 200.029007,334.522736 
	C207.607697,350.380585 218.896606,363.844025 232.415085,375.209595 
	C239.146011,380.868591 246.152878,386.204651 253.137131,391.553345 
	C254.935699,392.930725 257.120911,393.803192 259.382324,395.275391 
	C258.161285,403.585876 263.038177,408.034637 271.284180,406.173767 
	C272.300201,407.878113 273.015259,409.402679 273.730286,410.927277 
	C272.355316,411.334930 270.938080,411.640259 269.619629,412.184784 
	C268.676971,412.574127 267.866791,413.284302 266.997498,413.851318 
	C256.602966,408.302124 245.688019,403.529053 235.950775,396.999664 
	C224.762344,389.497162 215.915054,379.139130 209.241806,367.406311 
	C202.031906,354.729950 195.044708,341.843811 189.167282,328.516876 
	C183.655899,316.019897 179.881531,302.787384 179.170685,288.144531 
	C179.026825,282.265381 178.708328,277.192200 178.539291,272.114075 
	C178.283035,264.415497 178.130676,256.713470 177.934174,249.012894 
z"/>
<path fill="#30B5B1" opacity="1.000000" stroke="none" 
	d="
M137.966843,130.958954 
	C137.978867,130.237503 137.990906,129.516037 138.049622,128.439117 
	C144.124100,126.418442 150.123047,124.636894 156.190552,123.131813 
	C159.804688,122.235306 163.526581,121.773193 167.613403,121.527985 
	C169.354492,124.706818 170.682220,127.473450 171.975525,130.499786 
	C171.909332,130.932419 171.877579,131.105331 171.489471,131.242401 
	C169.372299,132.016296 167.335373,132.495850 165.900864,133.695663 
	C160.965591,137.823486 160.192856,145.642822 164.491211,152.904053 
	C170.560760,163.157333 179.673904,170.284775 189.988678,176.240295 
	C189.998245,176.678558 190.001877,176.853867 189.854156,177.380432 
	C189.144791,180.161163 188.586807,182.590591 187.711945,185.192505 
	C183.954895,186.075485 180.256683,187.961288 177.123596,187.273331 
	C168.173569,185.308167 160.282455,180.788803 155.318604,172.799713 
	C151.149643,166.089905 147.291580,159.079529 144.263977,151.799606 
	C141.491379,145.132828 140.014603,137.927170 137.966843,130.958954 
z"/>
<path fill="#4EC1B6" opacity="1.000000" stroke="none" 
	d="
M177.935959,248.566284 
	C178.130676,256.713470 178.283035,264.415497 178.539291,272.114075 
	C178.708328,277.192200 179.026825,282.265381 179.122498,287.705780 
	C169.725769,282.717590 160.069244,277.958130 151.352737,271.855927 
	C141.207977,264.753845 131.886139,256.476257 122.303268,248.200623 
	C123.132721,247.846909 124.182152,247.744003 124.550095,248.195938 
	C127.884521,252.291412 130.395493,249.918396 132.814911,247.207596 
	C133.672241,246.247040 134.281525,245.065109 135.303757,244.141632 
	C145.053726,251.208908 154.952576,257.298584 166.195068,260.898132 
	C171.491196,262.593842 172.105865,262.276917 171.884872,256.763611 
	C171.305801,242.317520 172.956161,228.162399 177.568802,214.476212 
	C178.744049,210.989090 177.969070,209.834778 175.066818,207.900620 
	C167.635971,202.948502 159.987686,198.009094 153.644180,191.817017 
	C145.425186,183.794205 140.226059,173.701538 139.688049,162.008072 
	C140.665848,163.654083 141.487305,165.097427 141.991104,166.644257 
	C144.664886,174.853439 148.400497,182.630264 155.428131,187.771805 
	C163.940582,193.999695 173.115921,199.321564 181.845383,205.383270 
	C180.504456,212.518188 179.322540,219.305298 178.140625,226.092407 
	C178.072998,233.434830 178.005371,240.777267 177.935959,248.566284 
z"/>
<path fill="#24A09E" opacity="1.000000" stroke="none" 
	d="
M405.984100,323.002106 
	C406.037323,324.391937 406.090576,325.781738 405.827881,327.342743 
	C404.315491,326.037811 403.074036,323.253571 401.929626,323.292908 
	C392.928955,323.602112 383.946808,324.451324 374.958954,325.134186 
	C370.117401,325.011658 365.275848,324.889130 360.204498,324.055298 
	C362.365234,315.868622 364.755768,308.393250 367.146301,300.917908 
	C372.018005,302.614899 376.770966,305.074219 381.785370,305.855438 
	C393.426880,307.669189 402.817871,303.513733 409.513855,293.175873 
	C411.862885,296.737823 413.936859,300.474518 416.000122,305.021820 
	C417.398560,313.230652 414.552856,317.887146 407.208344,319.913361 
	C406.565186,320.090820 406.381317,321.933105 405.984100,323.002106 
z"/>
<path fill="#4DC1B1" opacity="1.000000" stroke="none" 
	d="
M135.004044,243.984238 
	C134.281525,245.065109 133.672241,246.247040 132.814911,247.207596 
	C130.395493,249.918396 127.884521,252.291412 124.550095,248.195938 
	C124.182152,247.744003 123.132721,247.846909 122.174408,247.889999 
	C117.721886,243.966812 113.494316,239.846100 108.922401,235.129486 
	C103.100311,226.671783 97.622566,218.809982 91.989693,210.670868 
	C91.205627,209.554825 90.576698,208.716064 89.937515,207.653381 
	C89.927261,207.429459 89.879715,206.983658 90.085281,206.696014 
	C96.131966,203.609390 101.973091,200.810440 108.074829,198.281494 
	C112.732346,216.332886 121.005661,231.838852 135.004044,243.984238 
z"/>
<path fill="#20AC97" opacity="1.000000" stroke="none" 
	d="
M33.186481,239.290512 
	C34.242188,231.011368 35.297886,222.732208 36.869743,214.445694 
	C37.553043,215.728500 37.720188,217.018677 37.987206,219.079758 
	C40.369736,215.868484 42.104027,213.257141 44.110767,210.875351 
	C51.348846,202.284439 59.273617,194.522980 70.650162,191.767487 
	C72.220497,191.387146 75.127151,192.088562 75.805466,193.238617 
	C78.549652,197.891190 80.664268,202.915115 82.602310,207.866684 
	C65.961388,210.541122 52.229774,217.783859 41.238632,230.076752 
	C38.520142,233.117203 35.868729,236.217636 33.186481,239.290512 
z"/>
<path fill="#4EC1B6" opacity="1.000000" stroke="none" 
	d="
M278.972717,271.881042 
	C282.597992,275.516449 286.323181,279.058350 289.830658,282.804047 
	C302.591431,296.431549 316.286591,308.888245 333.067596,317.472931 
	C336.530151,319.244232 340.205048,320.600464 343.874176,322.484985 
	C335.560516,322.321228 327.155884,321.799530 318.748322,321.331024 
	C315.795349,321.166473 312.835052,321.132568 309.437866,320.595398 
	C306.450409,316.762024 304.493683,312.601166 301.251801,310.118530 
	C288.492889,300.347717 283.322510,286.409302 278.972717,271.881042 
z"/>
<path fill="#2BA99C" opacity="1.000000" stroke="none" 
	d="
M278.916199,271.553833 
	C283.322510,286.409302 288.492889,300.347717 301.251801,310.118530 
	C304.493683,312.601166 306.450409,316.762024 309.046326,320.503052 
	C303.407196,320.574585 297.719391,320.294830 291.600372,320.022644 
	C290.179260,318.952789 288.870758,318.032776 288.248657,316.773651 
	C281.826019,303.773132 275.514191,290.717804 268.991272,276.981445 
	C267.971344,270.181091 267.131714,264.076996 266.292053,257.972931 
	C270.481262,262.390839 274.670471,266.808716 278.916199,271.553833 
z"/>
<path fill="#30B5B1" opacity="1.000000" stroke="none" 
	d="
M173.147888,121.188072 
	C185.841309,121.410461 198.534637,121.782898 211.228210,121.792290 
	C217.627731,121.797028 223.757736,122.396774 229.805603,124.761658 
	C232.138062,125.673698 235.145401,124.669876 237.762268,125.075043 
	C255.856201,127.876526 273.179535,133.187012 289.786530,142.066345 
	C291.034058,145.464401 292.070251,148.203857 292.743195,150.905060 
	C288.581970,148.922043 284.783936,146.977310 280.671753,144.878326 
	C274.920166,142.457764 269.482819,140.191452 263.788330,137.685120 
	C258.014526,135.651001 252.497833,133.856903 246.629578,131.894379 
	C242.802490,131.073441 239.326965,130.420944 235.629425,129.593216 
	C233.936661,129.271164 232.465912,129.124344 230.577576,128.933655 
	C216.436401,128.280029 202.712784,127.670303 188.640884,126.901039 
	C185.071609,125.247650 182.322739,125.438934 180.132111,128.895187 
	C178.557709,128.968643 177.348282,129.072403 176.079361,129.103333 
	C176.019882,129.030502 175.903107,128.883118 175.786499,128.560699 
	C174.829239,125.888206 173.988571,123.538139 173.147888,121.188072 
z"/>
<path fill="#71D0C4" opacity="1.000000" stroke="none" 
	d="
M267.336914,414.015747 
	C267.866791,413.284302 268.676971,412.574127 269.619629,412.184784 
	C270.938080,411.640259 272.355316,411.334930 273.730286,410.927277 
	C273.015259,409.402679 272.300201,407.878113 271.429047,405.924500 
	C271.843872,404.997101 272.414795,404.498718 272.985718,404.000336 
	C273.423523,403.994568 273.861359,403.988800 274.640747,404.383179 
	C275.666901,413.668701 281.795410,416.433868 290.978394,412.000732 
	C292.414154,412.228241 293.849945,412.455719 295.697632,413.187378 
	C297.215179,418.632355 300.025909,422.104889 305.187927,422.680298 
	C309.368530,423.146332 312.218903,420.713898 313.981232,417.002960 
	C315.042297,417.001709 316.103363,417.000458 317.796722,417.240723 
	C321.997314,424.260681 326.599701,427.058807 332.029358,425.750977 
	C337.562408,424.418243 339.737762,421.503296 340.090912,414.948639 
	C343.757690,413.669037 347.424438,412.389435 351.434998,411.038208 
	C353.427399,419.010254 345.628693,427.471558 336.965393,427.413422 
	C328.265259,427.355042 319.510986,428.332184 310.878021,427.639252 
	C304.562744,427.132385 298.309052,424.955719 292.201416,422.985443 
	C283.939362,420.320129 275.843506,417.139618 267.336914,414.015747 
z"/>
<path fill="#1CA692" opacity="1.000000" stroke="none" 
	d="
M83.011230,207.801987 
	C80.664268,202.915115 78.549652,197.891190 75.805466,193.238617 
	C75.127151,192.088562 72.220497,191.387146 70.650162,191.767487 
	C59.273617,194.522980 51.348846,202.284439 44.110767,210.875351 
	C42.104027,213.257141 40.369736,215.868484 37.987206,219.079758 
	C37.720188,217.018677 37.553043,215.728500 37.174725,214.210388 
	C40.406956,208.278076 43.177505,201.992188 47.471901,197.023315 
	C52.337105,191.393967 58.568279,186.945175 64.565308,181.947815 
	C67.178993,182.559143 69.463020,183.117294 71.679939,183.872452 
	C75.245674,185.087082 78.767105,186.431824 82.653976,188.283234 
	C85.293701,194.891129 87.586708,200.937393 89.879715,206.983658 
	C89.879715,206.983658 89.927261,207.429459 89.504913,207.684387 
	C87.058784,207.893539 85.035004,207.847763 83.011230,207.801987 
z"/>
<path fill="#71D0C4" opacity="1.000000" stroke="none" 
	d="
M92.144821,210.948181 
	C97.622566,218.809982 103.100311,226.671783 108.776413,234.820343 
	C108.321770,237.431290 107.791901,239.798752 106.993073,242.071671 
	C104.448578,249.311523 100.666672,255.762436 94.347046,260.874878 
	C94.688965,257.114929 95.729820,253.225220 95.926704,249.293243 
	C96.699783,233.854950 89.911034,222.180649 77.612091,213.081848 
	C82.558296,212.095566 87.351562,211.521866 92.144821,210.948181 
z"/>
<path fill="#71D0C4" opacity="1.000000" stroke="none" 
	d="
M406.405273,323.001831 
	C406.381317,321.933105 406.565186,320.090820 407.208344,319.913361 
	C414.552856,317.887146 417.398560,313.230652 416.079712,305.389618 
	C423.866638,308.156494 431.663818,311.147797 439.234467,314.631378 
	C448.615662,318.948059 454.168396,326.956909 455.645264,336.689423 
	C456.914948,345.056335 460.089539,351.346832 466.706879,356.367004 
	C469.140259,358.213074 470.906189,360.938965 473.076233,363.598785 
	C470.522125,363.655243 467.937103,360.687714 465.044586,364.033905 
	C464.673706,364.462952 461.144196,362.742737 459.720276,361.357727 
	C459.237122,360.887787 460.734375,358.381744 461.447540,356.484619 
	C459.011383,353.613190 455.712677,350.813263 453.850525,347.260376 
	C451.412872,342.609497 449.695282,337.465912 448.435364,332.345428 
	C447.165771,327.185852 444.196655,323.754120 439.774323,321.434662 
	C436.114258,319.514984 432.296356,317.862488 428.449707,316.341156 
	C424.090637,314.617188 420.421844,314.004028 416.922333,319.063507 
	C415.219177,321.525879 410.293396,321.759216 406.405273,323.001831 
z"/>
<path fill="#52C5C2" opacity="1.000000" stroke="none" 
	d="
M102.034653,84.949982 
	C103.699654,89.354988 105.346214,93.792747 106.639389,98.553520 
	C104.429161,97.876625 102.660744,96.565125 100.679680,96.002831 
	C99.623505,95.703056 98.199783,96.698204 96.529129,97.093071 
	C88.916321,96.357468 82.115097,94.684509 76.798271,88.777893 
	C75.057678,86.342285 73.483543,84.194138 71.951851,81.665283 
	C72.494019,76.164200 76.163063,75.867897 80.090782,75.965332 
	C88.242004,74.941223 95.331902,76.901085 101.089279,83.855446 
	C101.595177,84.585091 101.839050,84.801628 102.081909,85.019302 
	C102.081909,85.019302 102.016212,84.982742 102.034653,84.949982 
z"/>
<path fill="#107D94" opacity="1.000000" stroke="none" 
	d="
M367.182129,300.520874 
	C364.755768,308.393250 362.365234,315.868622 359.944031,323.731812 
	C358.538391,324.070526 357.163391,324.021423 355.377197,323.917786 
	C356.949127,318.152985 358.932220,312.442719 360.903198,306.331482 
	C364.545441,290.098083 363.555908,274.289703 360.654327,258.489380 
	C360.393951,257.071625 360.193237,255.642868 359.964844,254.219223 
	C360.526184,254.052887 361.087555,253.886536 361.648926,253.720200 
	C363.757019,260.494873 366.165527,267.194336 367.886047,274.066071 
	C369.502991,280.524017 369.618744,281.180389 376.465424,280.934692 
	C382.870056,280.704895 389.254944,279.925049 395.648529,279.387299 
	C395.744904,279.807495 395.841248,280.227722 395.937592,280.647919 
	C388.902435,282.101105 381.920074,284.025452 374.811340,284.822083 
	C370.857239,285.265198 368.688049,285.880402 368.584869,290.289703 
	C368.507996,293.576599 367.700226,296.846405 367.182129,300.520874 
z"/>
<path fill="#43BDB8" opacity="1.000000" stroke="none" 
	d="
M128.008636,111.586868 
	C128.341888,113.609856 128.429596,115.342415 128.935852,116.942551 
	C130.528427,121.976196 132.229614,126.962906 130.453369,131.409393 
	C124.046051,128.344788 117.857903,125.492607 111.770126,122.440262 
	C106.600204,119.848137 106.405281,118.145264 109.915787,113.457726 
	C111.185959,111.761650 111.929169,109.670937 113.290039,107.579437 
	C114.279205,107.942001 114.843727,108.554344 115.512703,109.014961 
	C117.050613,110.073860 118.639374,111.058914 120.207489,112.073944 
	C120.457565,109.695381 121.035774,107.292030 120.858513,104.945755 
	C120.704315,102.904846 119.696419,100.928429 119.065773,98.923515 
	C122.028717,103.027626 124.991661,107.131737 128.008636,111.586868 
z"/>
<path fill="#4DC1AD" opacity="1.000000" stroke="none" 
	d="
M375.049774,325.372253 
	C383.946808,324.451324 392.928955,323.602112 401.929626,323.292908 
	C403.074036,323.253571 404.315491,326.037811 405.780334,327.757996 
	C406.048706,328.002106 406.006653,327.999695 406.023285,328.316528 
	C406.378235,329.427856 406.716583,330.222321 407.054901,331.016785 
	C407.054901,331.016785 406.992798,331.003296 407.063568,331.272522 
	C407.475159,332.027679 407.815948,332.513611 408.156738,332.999512 
	C412.997528,342.488831 418.390686,351.562347 427.748291,357.651398 
	C427.295807,358.172760 426.843353,358.694092 426.390869,359.215454 
	C422.909637,356.939850 418.959778,355.140076 416.054840,352.279297 
	C411.473419,347.767517 406.515259,343.086273 403.692383,337.481598 
	C400.220886,330.589203 395.022308,329.429901 388.506439,328.939911 
	C384.491608,328.637970 380.547699,327.392639 376.291290,326.339722 
	C375.720612,325.942505 375.430603,325.776428 375.049774,325.372253 
z"/>
<path fill="#AAEBE1" opacity="1.000000" stroke="none" 
	d="
M91.989693,210.670868 
	C87.351562,211.521866 82.558296,212.095566 77.387360,212.838745 
	C60.837536,215.645538 48.108418,223.676331 38.831337,237.221100 
	C36.998631,239.896942 34.825500,242.339615 32.474167,244.942352 
	C32.346481,243.297531 32.553997,241.600204 32.973991,239.596680 
	C35.868729,236.217636 38.520142,233.117203 41.238632,230.076752 
	C52.229774,217.783859 65.961388,210.541122 82.602303,207.866684 
	C85.035004,207.847763 87.058784,207.893539 89.515167,207.908310 
	C90.576698,208.716064 91.205627,209.554825 91.989693,210.670868 
z"/>
<path fill="#73D1C0" opacity="1.000000" stroke="none" 
	d="
M379.183075,335.386963 
	C382.798218,337.902557 386.653992,340.554291 390.072052,343.683990 
	C400.449799,353.186218 412.441925,359.370300 426.237061,362.112335 
	C427.344116,362.332367 428.376678,362.927216 429.702789,363.593536 
	C407.940277,363.698547 390.201569,355.824280 379.183075,335.386963 
z"/>
<path fill="#46BEB9" opacity="1.000000" stroke="none" 
	d="
M37.999847,283.569305 
	C38.657757,281.398926 39.324867,279.608002 40.250938,277.738525 
	C40.676010,278.466583 40.939278,279.266998 40.991638,280.080963 
	C41.236046,283.880371 42.936810,286.881042 46.922260,286.720917 
	C51.160175,286.550598 52.250828,282.813507 51.870239,279.398041 
	C51.369698,274.906036 50.012985,270.509399 49.024426,266.071777 
	C50.617954,268.157257 53.183163,270.069336 53.592979,272.366028 
	C54.335861,276.529297 54.316532,281.000671 53.680744,285.201996 
	C52.361027,293.922668 49.507626,295.147552 41.270897,291.126282 
	C39.945621,288.737030 38.977337,286.342896 37.999847,283.569305 
z"/>
<path fill="#4DC1AD" opacity="1.000000" stroke="none" 
	d="
M45.562943,85.911880 
	C42.973270,93.656578 40.028713,101.430305 36.672188,109.603531 
	C33.842255,108.319382 31.424278,106.635719 29.006306,104.952057 
	C29.798126,102.804764 30.031935,100.119011 31.486694,98.611412 
	C35.802433,94.138908 40.599293,90.130661 45.562943,85.911880 
z"/>
<path fill="#43BDB8" opacity="1.000000" stroke="none" 
	d="
M51.083439,89.208176 
	C50.520401,87.594711 49.957359,85.981247 49.116669,84.117981 
	C50.078991,79.162460 51.660343,75.002640 58.020008,76.834717 
	C58.948555,77.102203 60.175232,76.334785 61.756134,76.427666 
	C63.812195,78.525902 65.376083,80.242706 66.611694,82.094467 
	C61.216763,84.555679 56.150101,86.881927 51.083439,89.208176 
z"/>
<path fill="#107D94" opacity="1.000000" stroke="none" 
	d="
M28.649548,105.144493 
	C31.424278,106.635719 33.842255,108.319382 36.624298,110.007431 
	C36.988373,110.011826 36.999214,110.000366 37.089333,110.229233 
	C37.403946,110.708946 37.680504,110.870865 38.009125,110.943871 
	C41.784988,113.854805 45.310917,117.199966 49.405678,119.556839 
	C53.660736,122.005974 58.465794,123.499550 62.186954,125.057816 
	C57.664349,127.754967 51.956501,126.853958 47.475739,121.942810 
	C45.379799,119.645554 42.980743,117.624855 40.417206,115.379715 
	C37.814327,115.006165 35.513309,114.731712 33.075653,114.769028 
	C27.929794,113.482910 27.316439,109.788933 28.649548,105.144493 
z"/>
<path fill="#52C5C2" opacity="1.000000" stroke="none" 
	d="
M119.050270,98.949745 
	C119.696419,100.928429 120.704315,102.904846 120.858513,104.945755 
	C121.035774,107.292030 120.457565,109.695381 120.207489,112.073944 
	C118.639374,111.058914 117.050613,110.073860 115.512703,109.014961 
	C114.843727,108.554344 114.279205,107.942001 113.387070,107.238220 
	C113.404160,103.526787 111.471695,99.230515 116.731323,97.059875 
	C117.393028,96.992500 117.659126,97.181450 118.080833,97.906158 
	C118.564758,98.556389 118.829636,98.760193 119.094505,98.963989 
	C119.094505,98.963989 119.034767,98.975975 119.050270,98.949745 
z"/>
<path fill="#46BEB9" opacity="1.000000" stroke="none" 
	d="
M49.088394,307.412811 
	C49.418304,304.136658 49.664780,301.043030 50.243912,298.012970 
	C50.429996,297.039337 51.490566,295.516144 52.156700,295.513184 
	C53.249622,295.508301 54.751095,296.276733 55.350258,297.195251 
	C56.303726,298.656921 56.908752,300.465302 57.218586,302.205811 
	C58.289692,308.222748 56.476231,309.787384 50.247849,308.068054 
	C49.544968,308.013306 49.305958,307.874115 49.088394,307.412811 
z"/>
<path fill="#8CDECE" opacity="1.000000" stroke="none" 
	d="
M66.939972,81.959503 
	C65.376083,80.242706 63.812195,78.525902 62.134689,76.504364 
	C67.913765,75.859154 73.806458,75.518684 79.894974,75.571777 
	C76.163063,75.867897 72.494019,76.164200 71.540466,81.646622 
	C69.704414,81.992294 68.322189,81.975899 66.939972,81.959503 
z"/>
<path fill="#107D94" opacity="1.000000" stroke="none" 
	d="
M172.806366,121.128647 
	C173.988571,123.538139 174.829239,125.888206 175.486572,128.731354 
	C174.205475,129.562973 173.107712,129.901520 172.009949,130.240082 
	C170.682220,127.473450 169.354492,124.706818 168.019226,121.567513 
	C169.496078,121.152962 170.980453,121.111092 172.806366,121.128647 
z"/>
<path fill="#107D94" opacity="1.000000" stroke="none" 
	d="
M293.106415,150.943329 
	C292.070251,148.203857 291.034058,145.464401 289.992798,142.349396 
	C291.874023,142.726700 293.760406,143.479538 295.857849,144.525925 
	C295.749023,145.760559 294.957336,146.853058 295.201263,147.613266 
	C295.831512,149.577454 296.918915,151.394928 297.541260,153.623688 
	C296.574707,153.950989 295.890625,153.925583 295.049561,153.638275 
	C294.297211,152.565338 293.701813,151.754333 293.106415,150.943329 
z"/>
<path fill="#89DDCD" opacity="1.000000" stroke="none" 
	d="
M102.001938,84.759689 
	C101.839050,84.801628 101.595177,84.585091 101.178940,84.196503 
	C101.312386,84.182243 101.617180,84.341164 102.001938,84.759689 
z"/>
<path fill="#71D0C4" opacity="1.000000" stroke="none" 
	d="
M93.332199,262.023376 
	C93.188095,261.789856 93.369179,261.521057 93.828430,261.165100 
	C93.882660,261.331299 93.732925,261.634705 93.332199,262.023376 
z"/>
<path fill="#43BDB8" opacity="1.000000" stroke="none" 
	d="
M119.011940,98.708603 
	C118.829636,98.760193 118.564758,98.556389 118.167603,98.137978 
	C118.333344,98.099983 118.631355,98.276596 119.011940,98.708603 
z"/>
<path fill="#A4E9DD" opacity="1.000000" stroke="none" 
	d="
M205.015381,306.991028 
	C199.825577,293.401703 196.945038,279.446411 200.155823,264.993073 
	C202.161697,255.963577 206.500168,248.245346 215.664886,244.236404 
	C223.032730,241.013474 228.867020,244.481491 233.950836,248.802032 
	C244.176712,257.492615 252.632278,267.724060 257.662659,280.822876 
	C255.363876,283.160858 253.546249,285.470062 251.169250,286.683533 
	C239.582062,292.598755 227.912964,298.366333 216.119553,303.856873 
	C212.677780,305.459229 208.730804,305.976440 205.015381,306.991028 
z"/>
<path fill="#9CE5D8" opacity="1.000000" stroke="none" 
	d="
M205.157211,307.326599 
	C208.730804,305.976440 212.677780,305.459229 216.119553,303.856873 
	C227.912964,298.366333 239.582062,292.598755 251.169250,286.683533 
	C253.546249,285.470062 255.363876,283.160858 257.727570,281.177155 
	C261.666870,289.468445 265.342316,297.928986 268.954346,306.416473 
	C270.048645,308.987793 270.967560,311.633759 271.696320,314.792114 
	C269.443420,316.812714 267.623871,318.608704 265.451721,319.707794 
	C252.768661,326.125153 240.031128,332.437408 227.234146,338.624146 
	C225.368622,339.526031 223.086121,339.565369 220.996552,340.003815 
	C216.265472,330.622955 211.515289,321.251648 206.825104,311.850403 
	C206.166046,310.529358 205.800476,309.061859 205.157211,307.326599 
z"/>
<path fill="#94E2D3" opacity="1.000000" stroke="none" 
	d="
M221.062073,340.347992 
	C223.086121,339.565369 225.368622,339.526031 227.234146,338.624146 
	C240.031128,332.437408 252.768661,326.125153 265.451721,319.707794 
	C267.623871,318.608704 269.443420,316.812714 271.717041,315.169617 
	C276.270233,325.048248 280.782532,335.000122 284.679810,345.187286 
	C286.412720,349.716949 283.185028,352.558319 278.807373,354.778564 
	C277.536011,355.052826 276.809143,355.053558 276.082275,355.054291 
	C271.325378,357.717041 267.159393,355.504517 261.731110,351.836975 
	C265.435883,362.842468 257.997284,364.901184 252.059723,367.199310 
	C246.506287,369.348724 241.429993,366.314331 237.889923,362.200623 
	C231.968002,355.319000 226.681534,347.890503 221.062073,340.347992 
z"/>
<path fill="#73D1C0" opacity="1.000000" stroke="none" 
	d="
M178.545456,226.061462 
	C179.322540,219.305298 180.504456,212.518188 182.196655,205.426514 
	C184.505875,205.659256 186.304825,206.196533 188.440643,206.877167 
	C190.185486,207.364105 191.593475,207.707703 193.288483,208.288330 
	C195.819946,209.057663 198.104050,209.462234 200.301971,210.144409 
	C209.556717,213.016922 218.785767,215.972305 227.792038,219.167023 
	C226.036484,222.294434 224.513107,225.152191 222.989716,228.009949 
	C208.536331,222.312241 193.788406,223.167801 178.545456,226.061462 
z"/>
<path fill="#71D0C4" opacity="1.000000" stroke="none" 
	d="
M223.222656,228.256378 
	C224.513107,225.152191 226.036484,222.294434 228.138275,219.243698 
	C238.814957,224.758453 247.324036,232.363602 255.045853,241.253906 
	C255.374619,241.718094 255.607468,241.951584 255.840317,242.185074 
	C259.283630,247.204086 262.726929,252.223114 266.231140,257.607544 
	C267.131714,264.076996 267.971344,270.181091 268.814087,276.671204 
	C266.192749,273.981903 263.161041,271.164581 261.019073,267.783508 
	C254.183350,256.993408 247.483444,246.098663 237.376419,237.982620 
	C233.012589,234.478424 228.112213,231.642395 223.222656,228.256378 
z"/>
<path fill="#43BDB8" opacity="1.000000" stroke="none" 
	d="
M340.009796,414.595581 
	C339.737762,421.503296 337.562408,424.418243 332.029358,425.750977 
	C326.599701,427.058807 321.997314,424.260681 318.194641,417.238068 
	C317.625793,413.208893 316.773651,409.373047 317.138855,405.656830 
	C317.382324,403.179596 318.824799,399.613525 320.701263,398.814636 
	C322.952820,397.856018 327.260590,398.306396 328.873779,399.934387 
	C333.084015,404.183289 336.310120,409.407318 340.009796,414.595581 
z"/>
<path fill="#43BDB8" opacity="1.000000" stroke="none" 
	d="
M313.969299,416.586975 
	C312.218903,420.713898 309.368530,423.146332 305.187927,422.680298 
	C300.025909,422.104889 297.215179,418.632355 296.032959,413.332825 
	C296.570770,409.723328 296.877655,406.375427 297.866608,403.242889 
	C299.654541,397.579681 305.160767,396.213593 308.309143,401.129211 
	C311.134033,405.539734 312.145752,411.111511 313.969299,416.586975 
z"/>
<path fill="#43BDB8" opacity="1.000000" stroke="none" 
	d="
M291.050354,411.591888 
	C281.795410,416.433868 275.666901,413.668701 274.969055,404.377869 
	C276.526428,401.267181 277.751129,398.268585 279.742462,395.920074 
	C283.457245,391.539093 288.993469,392.226898 290.589142,397.677521 
	C291.817017,401.871948 291.019287,406.659302 291.050354,411.591888 
z"/>
<path fill="#43BDB8" opacity="1.000000" stroke="none" 
	d="
M272.999756,403.542725 
	C272.414795,404.498718 271.843872,404.997101 271.128082,405.744751 
	C263.038177,408.034637 258.161285,403.585876 259.736145,395.278778 
	C260.967285,391.167053 261.252899,386.574219 266.461151,386.172577 
	C269.826538,385.913025 272.623901,390.368011 273.020294,396.091217 
	C273.181000,398.411224 273.025452,400.753143 272.999756,403.542725 
z"/>
<path fill="#5ED0CC" opacity="1.000000" stroke="none" 
	d="
M306.872040,392.060699 
	C306.254425,389.387177 305.636780,386.713623 304.859741,383.350037 
	C303.342804,382.668945 300.419769,381.841736 298.092987,380.179779 
	C295.605865,378.403290 293.866608,375.773712 296.108856,372.492584 
	C298.254059,369.353424 300.790405,370.248169 303.477386,371.751801 
	C307.531311,374.020355 309.627533,377.164856 308.158783,382.088959 
	C313.211517,383.927765 318.932739,384.693176 319.583130,391.605591 
	C315.062714,392.006653 310.967377,392.033661 306.872040,392.060699 
z"/>
<path fill="#5ED0CC" opacity="1.000000" stroke="none" 
	d="
M275.882751,355.355530 
	C276.809143,355.053558 277.536011,355.052826 278.626648,355.080048 
	C280.997528,356.788208 283.449432,358.155212 284.905731,360.223328 
	C287.002899,363.201569 285.311066,366.330048 281.816223,365.815979 
	C279.336670,365.451263 276.506104,363.830536 274.996155,361.872681 
	C274.079559,360.684235 275.379181,357.786560 275.882751,355.355530 
z"/>
<path fill="#5ED0CC" opacity="1.000000" stroke="none" 
	d="
M280.881775,379.817688 
	C282.389832,378.593506 284.516022,376.021240 285.298279,376.379913 
	C288.582581,377.885895 291.611908,380.093384 294.405579,382.436310 
	C295.255707,383.149261 295.050232,385.120911 294.761719,386.739685 
	C289.757385,384.581451 285.319580,382.199585 280.881775,379.817688 
z"/>
<path fill="#43BDB8" opacity="1.000000" stroke="none" 
	d="
M273.009277,376.048340 
	C272.635559,377.980835 272.088440,379.587097 271.541321,381.193359 
	C269.058441,379.975708 266.396606,379.000671 264.207031,377.385468 
	C263.588806,376.929413 264.089264,373.431580 264.528442,373.332550 
	C266.384674,372.914001 268.465424,373.003784 270.352997,373.416229 
	C271.303192,373.623840 272.015839,374.918823 273.009277,376.048340 
z"/>
<path fill="#43BDB8" opacity="1.000000" stroke="none" 
	d="
M280.669006,380.106506 
	C285.319580,382.199585 289.757385,384.581451 294.562561,386.982269 
	C293.428619,391.646118 289.813721,390.444153 286.940521,389.360809 
	C283.058228,387.896942 279.624542,385.535248 280.669006,380.106506 
z"/>
<path fill="#43BDB8" opacity="1.000000" stroke="none" 
	d="
M307.072754,392.344574 
	C310.967377,392.033661 315.062714,392.006653 319.594116,391.975433 
	C318.972260,396.748413 316.802979,398.063141 312.483734,396.154938 
	C310.596100,395.320953 309.001282,393.824188 307.072754,392.344574 
z"/>
<path fill="#5ED0CC" opacity="1.000000" stroke="none" 
	d="
M315.962097,375.012604 
	C317.853333,376.420288 319.347565,377.833344 320.841797,379.246399 
	C319.841125,380.137360 318.739349,381.847046 317.862091,381.738739 
	C316.317657,381.548004 314.187927,380.548279 313.673126,379.315338 
	C313.257416,378.319763 314.858612,376.482056 315.962097,375.012604 
z"/>
<path fill="#5ED0CC" opacity="1.000000" stroke="none" 
	d="
M297.161896,358.311340 
	C298.156372,358.397980 299.091248,358.354095 299.372406,358.761414 
	C300.543945,360.458740 301.518768,362.291901 302.565735,364.075226 
	C300.985931,364.434052 298.910309,365.598907 297.924286,364.992401 
	C295.490723,363.495483 293.305542,361.224182 297.161896,358.311340 
z"/>
<path fill="#43BDB8" opacity="1.000000" stroke="none" 
	d="
M332.119049,390.868866 
	C332.859436,392.420685 333.599792,393.972473 334.340179,395.524292 
	C332.395111,395.593231 330.348083,396.058899 328.540222,395.594177 
	C327.297821,395.274811 326.387390,393.663910 325.578491,392.307251 
	C327.925293,391.612488 330.022156,391.240692 332.119049,390.868866 
z"/>
<path fill="#5ED0CC" opacity="1.000000" stroke="none" 
	d="
M286.382660,367.641846 
	C289.288849,365.470032 290.924072,367.059265 291.634796,369.439240 
	C291.854492,370.175018 290.182739,371.475616 289.377014,372.517609 
	C288.327972,370.999176 287.278931,369.480743 286.382660,367.641846 
z"/>
<path fill="#5ED0CC" opacity="1.000000" stroke="none" 
	d="
M331.989685,390.554565 
	C330.022156,391.240692 327.925293,391.612488 325.432434,392.001465 
	C325.082764,390.560669 325.129089,389.102692 325.175415,387.644714 
	C327.403717,388.509888 329.632050,389.375061 331.989685,390.554565 
z"/>
<path fill="#2FBCB9" opacity="1.000000" stroke="none" 
	d="
M318.003662,168.996429 
	C326.925751,175.514069 336.363007,181.488724 341.822205,191.649261 
	C343.412567,194.609222 343.023468,196.989426 340.851105,199.814972 
	C334.009369,208.713699 327.624908,217.963043 320.867676,226.929138 
	C320.200714,227.814102 318.189209,227.685776 316.393372,227.624329 
	C313.810699,220.798660 311.636444,214.376419 309.462219,207.954178 
	C309.163452,208.087494 308.864685,208.220810 308.565948,208.354126 
	C309.365295,216.568405 310.164673,224.782700 310.591827,232.979340 
	C304.607483,230.539062 298.930054,228.254929 293.404358,225.648941 
	C289.169617,223.651764 285.126495,221.248291 281.221375,218.776733 
	C285.562653,215.898392 290.785522,214.123215 293.599030,210.484894 
	C303.453644,197.741165 315.194458,185.934250 318.003662,168.996429 
M307.373444,204.920502 
	C307.373444,204.920502 307.547028,205.198380 307.547028,205.198380 
	C307.547028,205.198380 307.531799,204.827835 307.373444,204.920502 
z"/>
<path fill="#34C2BF" opacity="1.000000" stroke="none" 
	d="
M317.824402,168.714447 
	C315.194458,185.934250 303.453644,197.741165 293.599030,210.484894 
	C290.785522,214.123215 285.562653,215.898392 280.812927,218.770187 
	C274.485718,217.333710 268.790131,215.654968 263.030457,213.753815 
	C262.966339,213.531418 262.874451,213.077713 262.917480,212.612793 
	C262.977020,211.150589 263.129028,210.133560 262.986938,209.159424 
	C262.313629,204.542999 263.739014,202.346008 268.774933,200.948593 
	C276.600555,198.777039 283.995972,195.055038 291.573761,191.990234 
	C291.367035,191.419159 291.160339,190.848083 290.953613,190.277023 
	C288.299011,190.837036 285.644440,191.397049 283.009369,191.596558 
	C286.644012,186.014908 290.148102,180.711609 293.923004,175.608673 
	C295.704651,173.200226 298.005585,171.175934 300.292908,169.266617 
	C301.144775,171.889084 301.774933,174.222504 302.405121,176.555939 
	C302.824524,176.464523 303.243927,176.373093 303.663330,176.281677 
	C302.096039,169.189545 300.528717,162.097412 298.961365,155.005280 
	C305.189301,159.481018 311.417206,163.956741 317.824402,168.714447 
M293.529541,189.507385 
	C293.529541,189.507385 293.473053,189.530273 293.529541,189.507385 
z"/>
<path fill="#107D94" opacity="1.000000" stroke="none" 
	d="
M310.964020,232.996979 
	C310.164673,224.782700 309.365295,216.568405 308.565948,208.354126 
	C308.864685,208.220810 309.163452,208.087494 309.462219,207.954178 
	C311.636444,214.376419 313.810699,220.798660 316.040283,227.605637 
	C317.594391,235.311066 318.675629,236.318787 326.278931,235.866516 
	C331.371307,235.563599 336.429321,234.682327 341.502716,234.059860 
	C341.624084,234.468353 341.745453,234.876846 341.866821,235.285339 
	C337.491425,236.499802 333.184357,238.163651 328.727325,238.840881 
	C317.294708,240.578033 317.479736,240.433243 315.872803,251.610428 
	C314.979431,257.824402 313.241394,263.916931 311.860291,270.466858 
	C309.702271,274.287415 307.698547,277.797241 305.382050,281.086884 
	C304.108063,282.896118 302.307831,284.334778 300.377106,285.976715 
	C300.009338,286.012878 299.953308,285.968597 299.953308,285.968597 
	C302.902924,278.206207 305.852509,270.443817 308.938660,261.913452 
	C309.704803,251.762665 310.334412,242.379822 310.964020,232.996979 
z"/>
<path fill="#107D94" opacity="1.000000" stroke="none" 
	d="
M353.916382,210.191742 
	C355.303131,216.804031 356.576050,223.039795 357.848969,229.275558 
	C357.565033,229.317032 357.281128,229.358505 356.997192,229.399979 
	C354.193298,219.983185 351.389374,210.566391 348.585480,201.149582 
	C348.852600,201.009079 349.119751,200.868561 349.386902,200.728058 
	C350.858765,203.757111 352.330627,206.786179 353.916382,210.191742 
z"/>
<path fill="#1597AC" opacity="1.000000" stroke="none" 
	d="
M298.765564,154.859589 
	C300.528717,162.097412 302.096039,169.189545 303.663330,176.281677 
	C303.243927,176.373093 302.824524,176.464523 302.405121,176.555939 
	C301.774933,174.222504 301.144775,171.889084 300.254730,168.882294 
	C298.398743,163.439346 296.802643,158.669769 295.206543,153.900192 
	C295.890625,153.925583 296.574707,153.950989 297.599670,153.971313 
	C298.119232,154.241592 298.328918,154.490799 298.765564,154.859589 
z"/>
<path fill="#107D94" opacity="1.000000" stroke="none" 
	d="
M359.322449,251.047485 
	C359.421631,250.914276 359.521515,250.898102 359.621368,250.881927 
	C359.521942,250.976135 359.422516,251.070328 359.322449,251.047485 
z"/>
<path fill="#107D94" opacity="1.000000" stroke="none" 
	d="
M345.161072,233.449295 
	C345.115814,233.581100 345.017883,233.622559 344.919952,233.664017 
	C344.982727,233.562332 345.045532,233.460648 345.161072,233.449295 
z"/>
<path fill="#24A09E" opacity="1.000000" stroke="none" 
	d="
M188.103760,206.733810 
	C186.304825,206.196533 184.505875,205.659256 182.355682,205.078720 
	C173.115921,199.321564 163.940582,193.999695 155.428131,187.771805 
	C148.400497,182.630264 144.664886,174.853439 141.991104,166.644257 
	C141.487305,165.097427 140.665848,163.654083 139.631348,161.653870 
	C138.771149,160.388580 138.270569,159.632416 137.686752,158.836243 
	C137.603516,158.796234 137.421402,158.765335 137.421402,158.765335 
	C137.500122,154.470673 137.637695,150.176056 137.641846,145.881317 
	C137.646439,141.129883 137.528946,136.378326 137.715729,131.292892 
	C140.014603,137.927170 141.491379,145.132828 144.263977,151.799606 
	C147.291580,159.079529 151.149643,166.089905 155.318604,172.799713 
	C160.282455,180.788803 168.173569,185.308167 177.123596,187.273331 
	C180.256683,187.961288 183.954895,186.075485 187.711090,185.659012 
	C188.052658,192.879959 188.078217,199.806885 188.103760,206.733810 
z"/>
<path fill="#43BDB8" opacity="1.000000" stroke="none" 
	d="
M125.695229,134.348511 
	C132.333374,143.424164 129.429550,150.900085 118.589897,152.680069 
	C116.571869,153.011444 113.418411,151.906021 112.155945,150.352676 
	C108.067947,145.322784 106.192215,139.309158 106.963326,132.711716 
	C107.431870,128.703049 110.559105,126.288857 114.346642,127.786781 
	C118.264290,129.336182 121.764534,131.941010 125.695229,134.348511 
z"/>
<path fill="#AAEBE1" opacity="1.000000" stroke="none" 
	d="
M66.611694,82.094467 
	C68.322189,81.975899 69.704414,81.992294 71.498016,82.027336 
	C73.483543,84.194138 75.057678,86.342285 76.743362,89.116226 
	C75.613785,90.817299 74.372665,91.892563 72.866257,92.719009 
	C71.287407,91.819321 69.879875,90.477638 68.677078,90.641228 
	C64.266800,91.241043 59.784313,91.991714 55.706924,93.627548 
	C55.090572,93.874825 56.480095,99.121826 57.019047,102.393982 
	C59.717579,106.176086 62.338844,109.620377 64.960106,113.064667 
	C58.832447,114.712860 53.048576,113.330284 47.952469,110.097153 
	C43.714302,107.408325 43.803150,99.460693 47.547291,94.159576 
	C48.595669,92.675247 49.769703,91.279655 50.984764,89.525772 
	C56.150101,86.881927 61.216763,84.555679 66.611694,82.094467 
z"/>
<path fill="#9CE5D8" opacity="1.000000" stroke="none" 
	d="
M73.131546,92.967827 
	C74.372665,91.892563 75.613785,90.817299 76.909813,89.403694 
	C82.115097,94.684509 88.916321,96.357468 96.779808,97.295235 
	C98.693871,98.337700 99.944427,99.162170 101.194984,99.986633 
	C99.054611,107.705765 92.231033,106.565590 86.589409,107.911270 
	C83.987061,108.532005 81.657158,110.227837 79.133987,111.266846 
	C76.673103,112.280212 74.123283,113.077614 71.315567,113.601700 
	C72.016243,108.821091 73.013863,104.408607 74.035767,99.592667 
	C73.750549,97.115417 73.441048,95.041618 73.131546,92.967827 
z"/>
<path fill="#43BDB8" opacity="1.000000" stroke="none" 
	d="
M80.860550,137.264893 
	C84.021957,140.443039 83.439117,143.703430 80.506348,145.527924 
	C78.910591,146.520645 74.950447,146.112106 73.690773,144.784790 
	C70.251595,141.160965 67.254288,136.928131 65.008080,132.469910 
	C64.273010,131.010971 66.384125,128.118011 67.193619,125.880867 
	C69.211906,126.752213 71.621803,127.191841 73.162651,128.589523 
	C75.919273,131.090073 78.152275,134.167862 80.860550,137.264893 
z"/>
<path fill="#1A3855" opacity="1.000000" stroke="none" 
	d="
M83.055969,112.048988 
	C87.619728,108.960426 92.497414,108.975494 96.839310,112.669189 
	C96.602539,113.403435 96.446442,113.560310 96.026627,113.530640 
	C94.064041,112.850845 92.279549,111.738693 91.914078,114.944450 
	C91.655548,117.212090 90.589531,119.385376 90.306969,121.653473 
	C90.146713,122.939735 90.839127,124.332237 91.147514,125.676888 
	C92.733559,125.131065 95.163895,125.029846 95.733246,123.948639 
	C96.992889,121.556580 97.316887,118.671822 98.012543,115.993523 
	C98.002563,115.999023 98.020088,115.979935 98.020088,115.979935 
	C97.727837,119.364525 98.445267,123.412758 96.803612,125.910400 
	C95.624893,127.703720 91.274704,127.990440 88.375420,127.891556 
	C86.065987,127.812798 83.663132,126.382042 81.560127,125.120682 
	C75.615784,121.555321 75.724045,116.435829 81.875015,112.701904 
	C82.075722,113.048073 82.020309,113.017220 81.944397,113.411911 
	C82.696144,115.135147 83.523796,116.463699 84.351456,117.792252 
	C85.266655,116.846725 86.181854,115.901199 87.097061,114.955673 
	C85.719437,113.955780 84.341820,112.955894 82.986809,111.979584 
	C83.009422,112.003159 83.055969,112.048988 83.055969,112.048988 
z"/>
<path fill="#43BDB8" opacity="1.000000" stroke="none" 
	d="
M103.051590,146.133820 
	C103.208557,150.616577 100.893463,152.197861 97.180634,152.060059 
	C92.784790,151.896912 90.743027,148.971008 90.131927,145.088318 
	C89.566948,141.498611 90.773544,138.451752 94.597130,137.304718 
	C98.171898,136.232361 101.495651,139.652496 103.051590,146.133820 
z"/>
<path fill="#43BDB8" opacity="1.000000" stroke="none" 
	d="
M74.011475,99.996124 
	C73.013863,104.408607 72.016243,108.821091 70.890564,113.586456 
	C69.064339,113.732384 67.366180,113.525444 65.314072,113.191589 
	C62.338844,109.620377 59.717579,106.176086 57.310417,102.189484 
	C63.020168,101.096817 68.515823,100.546471 74.011475,99.996124 
z"/>
<path fill="#43BDB8" opacity="1.000000" stroke="none" 
	d="
M101.482391,100.154099 
	C99.944427,99.162170 98.693871,98.337700 97.192627,97.311066 
	C98.199783,96.698204 99.623505,95.703056 100.679680,96.002831 
	C102.660744,96.565125 104.429161,97.876625 106.630127,98.945251 
	C106.554283,100.262665 106.134331,101.511368 105.714371,102.760071 
	C104.399513,101.947235 103.084656,101.134392 101.482391,100.154099 
z"/>
<path fill="#1A3855" opacity="1.000000" stroke="none" 
	d="
M96.993340,113.011795 
	C97.492889,113.609863 97.757736,114.442711 98.021332,115.627747 
	C98.020088,115.979935 98.002563,115.999023 97.730377,115.889816 
	C97.068909,115.092804 96.679619,114.404991 96.290337,113.717178 
	C96.446442,113.560310 96.602539,113.403435 96.993340,113.011795 
z"/>
<path fill="#4DC1AD" opacity="1.000000" stroke="none" 
	d="
M137.258728,159.089249 
	C137.421402,158.765335 137.603516,158.796234 137.740143,159.139206 
	C137.617599,160.011963 137.358414,160.541748 137.099228,161.071518 
	C137.099228,161.071518 136.934860,160.942612 136.848999,160.875763 
	C136.874115,160.343658 136.985077,159.878418 137.258728,159.089249 
z"/>
<path fill="#1A3855" opacity="1.000000" stroke="none" 
	d="
M82.102882,113.064438 
	C82.183632,112.718163 82.237221,112.355530 82.673386,112.020943 
	C83.055969,112.048988 83.009422,112.003159 82.936287,112.231918 
	C82.582207,112.646202 82.301262,112.831711 82.020309,113.017227 
	C82.020309,113.017220 82.075722,113.048073 82.102882,113.064438 
z"/>
<path fill="#4DC1AD" opacity="1.000000" stroke="none" 
	d="
M37.886818,110.739655 
	C37.680504,110.870865 37.403946,110.708946 37.084930,110.233582 
	C37.314381,110.087578 37.572414,110.263039 37.886818,110.739655 
z"/>
<path fill="#52C5C2" opacity="1.000000" stroke="none" 
	d="
M48.682449,266.047150 
	C50.012985,270.509399 51.369698,274.906036 51.870239,279.398041 
	C52.250828,282.813507 51.160175,286.550598 46.922260,286.720917 
	C42.936810,286.881042 41.236046,283.880371 40.991638,280.080963 
	C40.939278,279.266998 40.676010,278.466583 40.288963,277.370789 
	C41.867058,273.524353 43.666092,269.967072 45.868690,266.348297 
	C46.272251,266.286804 46.661129,266.306946 46.661129,266.306946 
	C46.661129,266.306946 46.970192,266.041840 46.970192,266.041840 
	C47.426952,266.035400 47.883709,266.028961 48.682449,266.047150 
z"/>
<path fill="#43BDB8" opacity="1.000000" stroke="none" 
	d="
M65.043678,308.734406 
	C59.941765,305.893921 59.642124,297.262604 64.368065,294.680328 
	C65.415215,294.108154 67.850327,294.453613 68.634438,295.306671 
	C71.833771,298.787262 69.873016,306.344727 65.043678,308.734406 
z"/>
<path fill="#43BDB8" opacity="1.000000" stroke="none" 
	d="
M61.714687,282.666748 
	C62.243855,284.947357 63.164169,286.959930 62.851540,288.758179 
	C62.587963,290.274292 60.721039,292.776794 59.867168,292.658203 
	C58.162880,292.421509 55.705555,290.950470 55.309284,289.508331 
	C54.711376,287.332428 55.138485,284.562103 55.982185,282.372864 
	C57.404747,278.681671 59.021095,278.783813 61.714687,282.666748 
z"/>
<path fill="#46BEB9" opacity="1.000000" stroke="none" 
	d="
M66.935898,286.654449 
	C66.809471,283.622437 66.656311,280.881500 67.095016,278.238831 
	C67.224556,277.458496 69.025551,276.955688 70.060577,276.325684 
	C70.991798,278.490204 72.511826,280.612732 72.670013,282.832336 
	C72.799156,284.644440 71.301605,286.572449 70.525269,288.449066 
	C69.395294,287.960419 68.265320,287.471741 66.935898,286.654449 
z"/>
<path fill="#46BEB9" opacity="1.000000" stroke="none" 
	d="
M58.335968,268.594818 
	C59.716755,267.813599 61.871838,266.749878 62.112854,267.080658 
	C63.299057,268.708832 64.282089,270.649414 64.652313,272.609039 
	C64.765732,273.209381 62.476837,275.063385 61.696095,274.850037 
	C60.447113,274.508789 59.355713,273.039734 58.556416,271.813599 
	C58.087852,271.094849 58.314148,269.923157 58.335968,268.594818 
z"/>
<path fill="#46BEB9" opacity="1.000000" stroke="none" 
	d="
M52.074219,253.218658 
	C53.676117,253.667709 55.499382,254.114319 56.349541,255.274216 
	C57.004387,256.167664 56.651623,258.021851 56.267887,259.305664 
	C56.165817,259.647156 53.489620,259.767090 53.377163,259.468414 
	C52.661560,257.567841 52.332870,255.521545 52.074219,253.218658 
z"/>
<path fill="#46BEB9" opacity="1.000000" stroke="none" 
	d="
M46.744110,266.037109 
	C46.970192,266.041840 46.661129,266.306946 46.661129,266.306946 
	C46.661129,266.306946 46.272251,266.286804 46.171646,266.194031 
	C46.071041,266.101288 46.518024,266.032379 46.744110,266.037109 
z"/>
<path fill="#30B5B1" opacity="1.000000" stroke="none" 
	d="
M310.591827,232.979340 
	C310.334412,242.379822 309.704803,251.762665 308.965668,261.528320 
	C287.579834,262.338318 273.384491,250.464462 264.368500,231.535324 
	C263.728210,230.191055 263.134399,228.824646 262.264465,226.790710 
	C262.371521,222.067337 262.733032,218.021774 263.094574,213.976227 
	C268.790131,215.654968 274.485718,217.333710 280.589722,219.018982 
	C285.126495,221.248291 289.169617,223.651764 293.404358,225.648941 
	C298.930054,228.254929 304.607483,230.539062 310.591827,232.979340 
z"/>
<path fill="#107D94" opacity="1.000000" stroke="none" 
	d="
M263.030457,213.753815 
	C262.733032,218.021774 262.371521,222.067337 262.012329,226.551605 
	C260.134460,231.885406 258.254242,236.780487 256.107178,241.930328 
	C255.607468,241.951584 255.374619,241.718094 255.295532,240.982513 
	C256.630035,234.319199 257.810822,228.157974 259.014404,221.549454 
	C259.087219,218.433685 259.137238,215.765213 259.557129,213.076096 
	C260.909485,213.062881 261.891968,213.070297 262.874451,213.077713 
	C262.874451,213.077713 262.966339,213.531418 263.030457,213.753815 
z"/>
<path fill="#107D94" opacity="1.000000" stroke="none" 
	d="
M298.969025,287.976532 
	C299.159332,287.441040 299.349640,286.905579 299.746643,286.169342 
	C299.953308,285.968597 300.009338,286.012878 300.036774,286.037994 
	C299.860779,286.591187 299.657318,287.119232 299.226074,287.823975 
	C298.998260,288.000610 298.969025,287.976532 298.969025,287.976532 
z"/>
<path fill="#107D94" opacity="1.000000" stroke="none" 
	d="
M299.010376,288.015137 
	C299.022461,288.029663 298.794128,288.333038 298.794128,288.333038 
	C298.794128,288.333038 298.791901,288.070770 298.880463,288.023651 
	C298.969025,287.976532 298.998260,288.000610 299.010376,288.015137 
z"/>
<path fill="#A4E9DD" opacity="1.000000" stroke="none" 
	d="
M422.997375,342.013428 
	C421.306732,339.412323 418.834076,336.998688 418.152527,334.155701 
	C417.512268,331.484772 417.795044,327.446136 419.452454,325.689545 
	C421.149475,323.890991 425.755188,322.711578 427.768738,323.770172 
	C432.247589,326.124817 435.902649,330.046387 439.647675,333.812622 
	C433.933685,336.868439 428.465546,339.440918 422.997375,342.013428 
z"/>
<path fill="#94E2D3" opacity="1.000000" stroke="none" 
	d="
M423.165649,342.300171 
	C428.465546,339.440918 433.933685,336.868439 439.717407,334.150452 
	C442.064423,336.580658 444.247467,339.057281 446.035767,341.791962 
	C446.577820,342.620850 446.480652,344.466553 445.903290,345.329102 
	C442.737854,350.058380 432.418854,351.328766 428.164185,347.585968 
	C426.430145,346.060547 424.936768,344.261475 423.165649,342.300171 
z"/>
<path fill="#46BEB9" opacity="1.000000" stroke="none" 
	d="
M466.036652,370.080109 
	C466.072662,373.113190 464.092468,374.890381 461.695282,373.719391 
	C459.523102,372.658295 458.190460,369.878601 456.487671,367.856659 
	C457.864685,367.064758 459.286560,365.573364 460.607361,365.658051 
	C462.257355,365.763885 463.824219,367.166626 465.714661,368.491577 
	C466.013763,369.342499 466.025208,369.711304 466.036652,370.080109 
z"/>
<path fill="#4EC1B6" opacity="1.000000" stroke="none" 
	d="
M466.404419,370.100403 
	C466.025208,369.711304 466.013763,369.342499 466.011475,368.706360 
	C467.578705,367.820740 469.105804,367.021454 470.722321,366.745331 
	C471.026031,366.693451 471.686554,368.730347 472.182434,369.803406 
	C470.378998,369.909180 468.575592,370.014954 466.404419,370.100403 
z"/>
<path fill="#24A09E" opacity="1.000000" stroke="none" 
	d="
M407.080780,330.672913 
	C406.716583,330.222321 406.378235,329.427856 406.035187,328.297852 
	C406.389191,328.751251 406.747925,329.540131 407.080780,330.672913 
z"/>
<path fill="#24A09E" opacity="1.000000" stroke="none" 
	d="
M408.084564,332.699677 
	C407.815948,332.513611 407.475159,332.027679 407.075684,331.243164 
	C407.348816,331.429657 407.680603,331.914734 408.084564,332.699677 
z"/>
<path fill="#8CDECE" opacity="1.000000" stroke="none" 
	d="
M137.024551,161.416077 
	C137.358414,160.541748 137.617599,160.011963 137.823395,159.179214 
	C138.270569,159.632416 138.771149,160.388580 139.328415,161.498962 
	C140.226059,173.701538 145.425186,183.794205 153.644180,191.817017 
	C159.987686,198.009094 167.635971,202.948502 175.066818,207.900620 
	C177.969070,209.834778 178.744049,210.989090 177.568802,214.476212 
	C172.956161,228.162399 171.305801,242.317520 171.884872,256.763611 
	C172.105865,262.276917 171.491196,262.593842 166.195068,260.898132 
	C154.952576,257.298584 145.053726,251.208908 135.303757,244.141632 
	C121.005661,231.838852 112.732346,216.332886 108.116943,197.871185 
	C106.709938,192.922241 110.491341,191.484970 112.532669,189.056366 
	C115.244545,187.263367 118.582764,185.983261 120.550110,183.580627 
	C126.309441,176.547012 131.522675,169.066223 137.024551,161.416077 
z"/>
<path fill="#2BA99C" opacity="1.000000" stroke="none" 
	d="
M112.108337,188.936737 
	C110.491341,191.484970 106.709938,192.922241 107.856323,197.601166 
	C101.973091,200.810440 96.131966,203.609390 90.085281,206.696014 
	C87.586708,200.937393 85.293701,194.891129 82.994316,188.434448 
	C92.553284,188.288376 102.118645,188.552734 112.108337,188.936737 
z"/>
<path fill="#61D6D3" opacity="1.000000" stroke="none" 
	d="
M189.982758,175.977341 
	C179.673904,170.284775 170.560760,163.157333 164.491211,152.904053 
	C160.192856,145.642822 160.965591,137.823486 165.900864,133.695663 
	C167.335373,132.495850 169.372299,132.016296 171.538940,131.599060 
	C177.053986,142.912125 181.803574,154.024246 187.463791,164.651321 
	C189.496292,168.467346 191.651123,171.614944 189.982758,175.977341 
z"/>
<path fill="#2FBCB9" opacity="1.000000" stroke="none" 
	d="
M189.988678,176.240295 
	C191.651123,171.614944 189.496292,168.467346 187.463791,164.651321 
	C181.803574,154.024246 177.053986,142.912125 171.895325,131.634903 
	C171.877579,131.105331 171.909332,130.932419 171.975525,130.499786 
	C173.107712,129.901520 174.205475,129.562973 175.603180,129.053772 
	C175.903107,128.883118 176.019882,129.030502 176.120041,129.448151 
	C179.151779,136.574799 182.083344,143.283783 185.077209,150.347885 
	C186.835495,154.069550 188.741623,157.349258 190.177277,160.823364 
	C192.238037,165.810150 195.356094,168.493835 201.112335,167.220093 
	C201.472855,167.962357 201.716736,168.454544 201.589783,169.024780 
	C195.872070,169.729691 192.529129,172.214813 192.566071,178.040466 
	C191.513260,177.656067 190.759384,177.342606 190.005508,177.029160 
	C190.001877,176.853867 189.998245,176.678558 189.988678,176.240295 
z"/>
<path fill="#107D94" opacity="1.000000" stroke="none" 
	d="
M189.854156,177.380432 
	C190.759384,177.342606 191.513260,177.656067 192.629822,178.319061 
	C193.099808,179.033447 193.207108,179.398254 193.104584,180.114578 
	C192.662613,182.610947 192.430450,184.755798 192.151825,187.371994 
	C192.404068,194.579330 192.702759,201.315323 193.001450,208.051300 
	C191.593475,207.707703 190.185486,207.364105 188.440643,206.877167 
	C188.078217,199.806885 188.052658,192.879959 188.027969,185.486526 
	C188.586807,182.590591 189.144791,180.161163 189.854156,177.380432 
z"/>
<path fill="#46CDCA" opacity="1.000000" stroke="none" 
	d="
M264.045441,137.925140 
	C269.482819,140.191452 274.920166,142.457764 280.676086,145.301666 
	C281.285614,147.972687 280.858337,150.659058 282.004028,152.046814 
	C285.261108,155.992111 283.615631,158.995361 281.168945,162.219437 
	C277.282410,167.340790 273.608093,172.633179 269.535492,177.600266 
	C266.260895,181.594070 262.529388,185.213257 258.831879,188.698547 
	C257.467163,186.178955 256.271210,183.959503 255.075256,181.740051 
	C254.807312,181.867752 254.539368,181.995468 254.271423,182.123169 
	C255.172501,186.413345 256.073578,190.703506 256.570190,195.019699 
	C253.911331,195.310303 251.613556,195.990814 249.410645,195.761261 
	C242.871994,195.079910 240.080597,196.549484 236.674377,202.817047 
	C231.571625,200.144089 226.785843,197.613419 222.161621,194.784851 
	C223.581070,192.951431 224.880020,191.447403 226.087662,189.873322 
	C228.097916,187.253052 230.583649,186.332123 233.418274,188.259766 
	C237.785065,191.229355 240.908066,189.441864 243.563248,185.876892 
	C252.065918,174.460907 260.465942,162.968369 268.984100,151.564041 
	C271.625061,148.028259 271.230133,145.523743 266.956573,143.989594 
	C263.949371,142.910034 262.650238,141.082672 264.045441,137.925140 
M253.490189,179.558243 
	C253.490189,179.558243 253.458862,179.490143 253.490189,179.558243 
z"/>
<path fill="#52D1CF" opacity="1.000000" stroke="none" 
	d="
M263.788330,137.685120 
	C262.650238,141.082672 263.949371,142.910034 266.956573,143.989594 
	C271.230133,145.523743 271.625061,148.028259 268.984100,151.564041 
	C260.465942,162.968369 252.065918,174.460907 243.563248,185.876892 
	C240.908066,189.441864 237.785065,191.229355 233.418274,188.259766 
	C230.583649,186.332123 228.097916,187.253052 226.087662,189.873322 
	C224.880020,191.447403 223.581070,192.951431 221.807037,194.705093 
	C216.526855,192.282761 211.762802,189.642288 207.281052,186.822021 
	C209.707306,183.421921 211.851257,180.201614 214.326508,176.989349 
	C215.099121,177.007706 215.540451,177.018036 216.157501,177.317383 
	C218.335052,179.031113 220.419098,180.354904 222.320053,181.903442 
	C225.412430,184.422562 227.311951,183.567993 229.487366,180.419983 
	C233.426163,174.720261 237.799255,169.314301 242.129410,163.896271 
	C243.095718,162.687210 244.634460,161.935654 246.052826,161.244904 
	C246.598633,162.277237 247.001251,163.038086 247.403885,163.798950 
	C247.641998,163.713882 247.880112,163.628815 248.118225,163.543747 
	C247.781586,161.016907 247.444962,158.490082 247.440063,155.900742 
	C251.724625,151.194977 255.677460,146.551712 259.057831,142.580917 
	C254.294815,138.432617 250.637985,135.247711 246.981140,132.062805 
	C252.497833,133.856903 258.014526,135.651001 263.788330,137.685120 
z"/>
<path fill="#3BC8C5" opacity="1.000000" stroke="none" 
	d="
M259.000641,188.998672 
	C262.529388,185.213257 266.260895,181.594070 269.535492,177.600266 
	C273.608093,172.633179 277.282410,167.340790 281.168945,162.219437 
	C283.615631,158.995361 285.261108,155.992111 282.004028,152.046814 
	C280.858337,150.659058 281.285614,147.972687 280.990295,145.455933 
	C284.783936,146.977310 288.581970,148.922043 292.743195,150.905060 
	C293.701813,151.754333 294.297211,152.565338 295.049561,153.638275 
	C296.802643,158.669769 298.398743,163.439346 300.033020,168.593262 
	C298.005585,171.175934 295.704651,173.200226 293.923004,175.608673 
	C290.148102,180.711609 286.644012,186.014908 282.680847,191.773758 
	C275.452728,194.159271 268.572662,196.007080 261.757416,197.837479 
	C260.652466,194.294739 259.826538,191.646698 259.000641,188.998672 
z"/>
<path fill="#61D6D3" opacity="1.000000" stroke="none" 
	d="
M185.014923,149.992767 
	C182.083344,143.283783 179.151779,136.574799 176.179520,129.520996 
	C177.348282,129.072403 178.557709,128.968643 180.186035,129.303268 
	C181.648010,133.727158 184.571335,133.840912 187.550751,132.658737 
	C190.130966,131.634949 190.681839,129.488785 188.989182,127.060577 
	C202.712784,127.670303 216.436401,128.280029 230.703171,129.247864 
	C231.880890,131.043747 232.515442,132.481506 232.709442,133.935699 
	C223.006271,133.638916 213.732407,132.922974 204.485764,133.181244 
	C199.817261,133.311615 194.943726,134.608551 190.618942,136.449417 
	C184.813232,138.920639 184.993668,144.673111 185.014923,149.992767 
z"/>
<path fill="#61D6D3" opacity="1.000000" stroke="none" 
	d="
M246.629578,131.894379 
	C250.637985,135.247711 254.294815,138.432617 259.057831,142.580917 
	C255.677460,146.551712 251.724625,151.194977 247.341461,155.539932 
	C243.224579,146.750565 239.538010,138.259506 235.851440,129.768448 
	C239.326965,130.420944 242.802490,131.073441 246.629578,131.894379 
z"/>
<path fill="#2FBCB9" opacity="1.000000" stroke="none" 
	d="
M235.629425,129.593216 
	C239.538010,138.259506 243.224579,146.750565 247.009735,155.602432 
	C247.444962,158.490082 247.781586,161.016907 248.118225,163.543747 
	C247.880112,163.628815 247.641998,163.713882 247.403885,163.798950 
	C247.001251,163.038086 246.598633,162.277237 246.013153,160.879272 
	C243.344940,155.103912 240.859589,149.965652 238.341827,144.445648 
	C236.589600,140.682343 234.869797,137.300797 233.149994,133.919266 
	C232.515442,132.481506 231.880890,131.043747 231.120743,129.291748 
	C232.465912,129.124344 233.936661,129.271164 235.629425,129.593216 
z"/>
<path fill="#AAEBE1" opacity="1.000000" stroke="none" 
	d="
M188.640884,126.901047 
	C190.681839,129.488785 190.130966,131.634949 187.550751,132.658737 
	C184.571335,133.840912 181.648010,133.727158 180.550995,129.333557 
	C182.322739,125.438934 185.071609,125.247650 188.640884,126.901047 
z"/>
<path fill="#24A09E" opacity="1.000000" stroke="none" 
	d="
M193.288483,208.288345 
	C192.702759,201.315323 192.404068,194.579330 192.463623,187.468536 
	C197.203918,190.777039 201.029282,196.109451 206.079208,197.814026 
	C218.055374,201.856491 228.544937,208.336334 239.376099,214.441864 
	C245.459763,217.871231 251.150146,222.905853 258.991608,221.996735 
	C257.810822,228.157974 256.630035,234.319199 255.199600,240.751816 
	C247.324036,232.363602 238.814957,224.758453 228.370453,218.974030 
	C218.785767,215.972305 209.556717,213.016922 200.301971,210.144409 
	C198.104050,209.462234 195.819946,209.057663 193.288483,208.288345 
z"/>
<path fill="#107D94" opacity="1.000000" stroke="none" 
	d="
M307.452637,204.874176 
	C307.531799,204.827835 307.547028,205.198380 307.547028,205.198380 
	C307.547028,205.198380 307.373444,204.920502 307.452637,204.874176 
z"/>
<path fill="#1597AC" opacity="1.000000" stroke="none" 
	d="
M258.831879,188.698547 
	C259.826538,191.646698 260.652466,194.294739 261.757416,197.837479 
	C268.572662,196.007080 275.452728,194.159271 282.661316,192.134277 
	C285.644440,191.397049 288.299011,190.837036 290.953613,190.277023 
	C291.160339,190.848083 291.367035,191.419159 291.573761,191.990234 
	C283.995972,195.055038 276.600555,198.777039 268.774933,200.948593 
	C263.739014,202.346008 262.313629,204.542999 262.986938,209.159424 
	C263.129028,210.133560 262.977020,211.150589 262.917480,212.612793 
	C261.891968,213.070297 260.909485,213.062881 259.492950,212.795746 
	C259.028656,212.347366 258.998444,212.158707 258.983521,211.521851 
	C258.324097,205.713654 257.649384,200.353653 256.974670,194.993668 
	C256.073578,190.703506 255.172501,186.413345 254.271423,182.123169 
	C254.539368,181.995468 254.807312,181.867752 255.075256,181.740051 
	C256.271210,183.959503 257.467163,186.178955 258.831879,188.698547 
z"/>
<path fill="#1597AC" opacity="1.000000" stroke="none" 
	d="
M293.501282,189.518829 
	C293.473053,189.530273 293.529541,189.507385 293.501282,189.518829 
z"/>
<path fill="#52C5C2" opacity="1.000000" stroke="none" 
	d="
M74.035759,99.592667 
	C68.515823,100.546471 63.020168,101.096817 57.233147,101.851662 
	C56.480095,99.121826 55.090572,93.874825 55.706924,93.627548 
	C59.784313,91.991714 64.266800,91.241043 68.677078,90.641228 
	C69.879875,90.477638 71.287407,91.819321 72.866257,92.719009 
	C73.441048,95.041618 73.750549,97.115417 74.035759,99.592667 
z"/>
<path fill="#24A09E" opacity="1.000000" stroke="none" 
	d="
M96.026627,113.530640 
	C96.679619,114.404991 97.068909,115.092804 97.740356,115.884323 
	C97.316887,118.671822 96.992889,121.556580 95.733246,123.948639 
	C95.163895,125.029846 92.733559,125.131065 91.147514,125.676888 
	C90.839127,124.332237 90.146713,122.939735 90.306969,121.653473 
	C90.589531,119.385376 91.655548,117.212090 91.914078,114.944450 
	C92.279549,111.738693 94.064041,112.850845 96.026627,113.530640 
z"/>
<path fill="#AAEBE1" opacity="1.000000" stroke="none" 
	d="
M81.944405,113.411911 
	C82.301262,112.831711 82.582207,112.646202 82.913673,112.208344 
	C84.341820,112.955894 85.719437,113.955780 87.097061,114.955673 
	C86.181854,115.901199 85.266655,116.846725 84.351456,117.792252 
	C83.523796,116.463699 82.696144,115.135147 81.944405,113.411911 
z"/>
<path fill="#30B5B1" opacity="1.000000" stroke="none" 
	d="
M258.968231,211.970062 
	C258.998444,212.158707 259.028656,212.347366 259.123108,212.816376 
	C259.137238,215.765213 259.087219,218.433685 259.014404,221.549454 
	C251.150146,222.905853 245.459763,217.871231 239.376099,214.441864 
	C228.544937,208.336334 218.055374,201.856491 206.079208,197.814026 
	C201.029282,196.109451 197.203918,190.777039 192.510086,186.997192 
	C192.430450,184.755798 192.662613,182.610947 193.437744,180.184235 
	C198.320068,182.268860 202.659409,184.635330 206.998749,187.001801 
	C211.762802,189.642288 216.526855,192.282761 221.645493,195.003006 
	C226.785843,197.613419 231.571625,200.144089 236.990402,202.980438 
	C244.738358,206.180756 251.853287,209.075409 258.968231,211.970062 
z"/>
<path fill="#6EDCD9" opacity="1.000000" stroke="none" 
	d="
M232.709442,133.935699 
	C234.869797,137.300797 236.589600,140.682343 238.011292,144.627808 
	C232.139053,152.479782 226.564957,159.767822 220.553406,167.036591 
	C213.742523,167.001541 207.369110,166.985779 200.995682,166.970016 
	C195.356094,168.493835 192.238037,165.810150 190.177277,160.823364 
	C188.741623,157.349258 186.835495,154.069550 185.077225,150.347885 
	C184.993668,144.673111 184.813232,138.920639 190.618942,136.449417 
	C194.943726,134.608551 199.817261,133.311615 204.485764,133.181244 
	C213.732407,132.922974 223.006271,133.638916 232.709442,133.935699 
z"/>
<path fill="#61D6D3" opacity="1.000000" stroke="none" 
	d="
M207.281052,186.822021 
	C202.659409,184.635330 198.320068,182.268860 193.647552,179.832733 
	C193.207108,179.398254 193.099808,179.033447 192.928772,178.390030 
	C192.529129,172.214813 195.872070,169.729691 201.971909,169.040573 
	C203.487625,168.995224 204.250381,169.012161 205.075272,169.363556 
	C208.090012,172.125793 211.042618,174.553558 213.995209,176.981323 
	C211.851257,180.201614 209.707306,183.421921 207.281052,186.822021 
z"/>
<path fill="#3BC8C5" opacity="1.000000" stroke="none" 
	d="
M205.013123,169.029083 
	C204.250381,169.012161 203.487625,168.995224 202.342743,168.962494 
	C201.716736,168.454544 201.472855,167.962357 201.112335,167.220093 
	C207.369110,166.985779 213.742523,167.001541 220.789322,167.244370 
	C222.623428,168.066620 223.784164,168.661804 224.944885,169.256989 
	C224.835571,169.508957 224.726257,169.760910 224.616943,170.012863 
	C223.389557,169.744781 222.162170,169.476700 220.476028,169.159363 
	C215.015884,169.083115 210.014496,169.056107 205.013123,169.029083 
z"/>
<path fill="#3BC8C5" opacity="1.000000" stroke="none" 
	d="
M258.983521,211.521851 
	C251.853287,209.075409 244.738358,206.180756 237.307388,203.122711 
	C240.080597,196.549484 242.871994,195.079910 249.410645,195.761261 
	C251.613556,195.990814 253.911331,195.310303 256.570190,195.019699 
	C257.649384,200.353653 258.324097,205.713654 258.983521,211.521851 
z"/>
<path fill="#1597AC" opacity="1.000000" stroke="none" 
	d="
M253.474518,179.524200 
	C253.458862,179.490143 253.490189,179.558243 253.474518,179.524200 
z"/>
<path fill="#61D6D3" opacity="1.000000" stroke="none" 
	d="
M220.934799,169.208603 
	C222.162170,169.476700 223.389557,169.744781 224.616943,170.012863 
	C224.726257,169.760910 224.835571,169.508957 224.944885,169.256989 
	C223.784164,168.661804 222.623428,168.066620 221.226776,167.263641 
	C226.564957,159.767822 232.139053,152.479782 238.043701,145.009583 
	C240.859589,149.965652 243.344940,155.103912 245.869965,160.607819 
	C244.634460,161.935654 243.095718,162.687210 242.129410,163.896271 
	C237.799255,169.314301 233.426163,174.720261 229.487366,180.419983 
	C227.311951,183.567993 225.412430,184.422562 222.320053,181.903442 
	C220.419098,180.354904 218.335052,179.031113 216.448929,177.138412 
	C218.021362,174.183151 219.478073,171.695877 220.934799,169.208603 
z"/>
<path fill="#6EDCD9" opacity="1.000000" stroke="none" 
	d="
M220.476028,169.159363 
	C219.478073,171.695877 218.021362,174.183151 216.273209,176.849396 
	C215.540451,177.018036 215.099121,177.007706 214.326508,176.989349 
	C211.042618,174.553558 208.090012,172.125793 205.075272,169.363556 
	C210.014496,169.056107 215.015884,169.083115 220.476028,169.159363 
z"/>
</svg>