<?xml version="1.0" encoding="utf-8"?>
<!-- Generator: Adobe Illustrator 25.1.0, SVG Export Plug-In . SVG Version: 6.00 Build 0)  -->
<svg version="1.1" id="Layer_1" xmlns="http://www.w3.org/2000/svg" xmlns:xlink="http://www.w3.org/1999/xlink" x="0px" y="0px"
	 viewBox="0 0 360 360" style="enable-background:new 0 0 360 360;" xml:space="preserve">
<style type="text/css">
	.st0{fill: none;}
	.st1{fill:#E5E8EE;}
	.st2{fill:#18A24A;}
	.st3{fill:#6FBAE7;}
	.st4{fill:#59BC6E;}
	.st5{fill:#4B94CF;}
	.st6{fill:#CED5E0;}
	.st7{fill:#EBEFF5;}
	.st8{fill:#BBD2ED;}
	.st9{fill:#C7DCF0;}
	.st10{fill:#BDD1E5;}
	.st11{fill:#C7DDF0;}
	.st12{fill:#C9E3F1;}
	.st13{fill:#C6DDF3;}
	.st14{fill:#67A0D6;}
	.st15{fill:#C4DFF1;}
	.st16{fill:#DCE4F4;}
	.st17{fill:#C5DEF0;}
	.st18{fill:#BCD0E2;}
	.st19{fill:#C6DEF0;}
	.st20{fill:#C6DDF0;}
	.st21{fill:#C1DEEF;}
	.st22{fill:#C8DAF0;}
	.st23{fill:#C9D8EC;}
	.st24{fill:#BEDCEF;}
	.st25{fill:#CFE1CC;}
	.st26{fill:#D4EAD6;}
	.st27{fill:#C1DDEF;}
	.st28{fill:#CEE3F0;}
	.st29{fill:#CADCF0;}
	.st30{fill:#34A54F;}
	.st31{fill:#48A958;}
	.st32{fill:#CAE3F1;}
	.st33{fill:#8FB9C5;}
	.st34{fill:#57AD61;}
	.st35{fill:#C9DFF0;}
	.st36{fill:#54AC5F;}
	.st37{fill:#C7E4C8;}
	.st38{fill:#C8DBF0;}
	.st39{fill:#6BB374;}
	.st40{fill:#CDE3F1;}
	.st41{fill:#69B26E;}
	.st42{fill:#97C595;}
	.st43{fill:#A2C4C8;}
	.st44{fill:#99BDD4;}
	.st45{fill:#77B87E;}
	.st46{fill:#B6D4B2;}
	.st47{fill:#BED8BC;}
	.st48{fill:#6AB373;}
	.st49{fill:#CADBF0;}
	.st50{fill:#99C0C2;}
	.st51{fill:#D1E9D2;}
	.st52{fill:#58AD60;}
	.st53{fill:#ABCFCB;}
	.st54{fill:#6CAADC;}
	.st55{fill:#EDEAEF;}
	.st56{fill:#F0ECEF;}
	.st57{fill:#F4EEF0;}
	.st58{fill:#458EC6;}
	.st59{fill:#378FC0;}
	.st60{fill:#A6CCE5;}
</style>
<g>
	<g>
		<path class="st0" d="M180.03,347.8c-57.95,0-115.9-0.01-173.85,0.04c-1.31,0-1.48-0.33-1.48-1.54
			c0.03-110.87,0.03-221.74,0-332.61c0-1.23,0.21-1.52,1.49-1.52c115.85,0.04,231.69,0.04,347.54,0c1.38,0,1.56,0.37,1.56,1.62
			c-0.03,110.87-0.03,221.74,0,332.61c0,1.13-0.21,1.44-1.41,1.44C295.93,347.79,237.98,347.8,180.03,347.8z"/>
		<path class="st1" d="M184.5,185.13c2.05,0.63,4.15,0.15,6.22,0.3c0.77,0.33,1.61,0.24,2.4,0.27c2.25,0.09,4.31,0.74,6.33,1.65
			c5.77,2.48,9.82,6.71,12.41,12.36c0.81,1.77,1.3,3.67,1.56,5.63c0.17,1.32,0.47,2.61,0.44,3.96c-0.11,5.24-1.48,10.05-4.67,14.28
			c-0.3,0.4-0.47,0.96-1.14,0.9c-1.19-0.06-2.38-0.06-3.57-0.06c-12.15-0.05-24.29-0.27-36.43-0.41
			c-6.61-0.08-13.23-0.13-19.84-0.19c-2.78-0.02-4.51,1.7-4.49,4.24c0.01,1.9,1.21,3.49,3.04,4.03c0.95,0.28,1.93,0.38,2.92,0.36
			c12.61-0.2,25.22,0.51,37.83,0.32c1.03-0.02,2.07-0.05,3.06,0.35c0.59,0.34,1.28,0.31,1.91,0.47c1.83,0.47,3.7,0.27,5.55,0.27
			c5.36-0.02,10.73,0.04,16.09,0.01c0.62,0,1.24,0.03,1.86-0.04c0.19-0.05,0.35-0.14,0.5-0.26c1.74,0.64,3.53-0.15,5.3,0.2
			c0.62,0.12,1.07-0.53,0.81-1.32c-0.62-1.85-0.53-3.76-0.53-5.67c0.01-14.38,0-28.75,0-43.13c0-4.02-0.54-8.04-0.29-12.06
			c0.09-1.53-1.23-1.76-2.08-2.15c-4.97-2.28-9.73-4.95-14.29-7.96c-0.69-0.46-1.41-0.64-2.2-0.55c-4.32,0.47-8.64,0.3-12.96,0.02
			c-1.23-0.08-2.46-0.13-3.68-0.37c-0.18-0.04-0.34-0.19-0.52-0.3c0.77-0.65,1.65-0.36,2.51-0.33c3.49,0.14,6.97,0.62,10.47,0.44
			c2.05-0.11,4.09-0.44,6.15-0.1c2.9,1.49,5.49,3.49,8.41,4.95c2.17,1.09,4.26,2.35,6.54,3.21c1.79,0.68,2.6,1.92,2.67,3.76
			c0.03,0.78,0.04,1.55,0.04,2.33c0,17.58,0.01,35.17-0.01,52.75c0,1.57,0.18,3.09,0.53,4.61c0.35,1.52,1.41,1.93,2.74,1.06
			c0.35-0.23,0.64-0.53,0.93-0.82c2.34-2.34,4.66-4.7,7.04-7.01c0.88-0.86,1.23-1.8,1.23-3.03c-0.04-11.27-0.03-22.55-0.02-33.82
			c0-2.39,0.94-3.21,3.21-2.91c-0.1,0.17-0.18,0.48-0.31,0.5c-2.16,0.43-1.85,2.06-1.84,3.6c0.02,10.44-0.01,20.88,0.04,31.32
			c0,0.84-0.42,1.69-0.03,2.53c0.41,0.55,0.56,0.02,0.77-0.19c7.37-7.61,14.95-14.99,22.41-22.51c7.71-7.78,15.51-15.45,23.25-23.2
			c2.3-2.3,4.49-4.71,6.94-6.85c0.68-0.59,1.61-0.9,1.9-1.88l0,0c0.62-0.14,1.22-0.31,1.55-0.93c2.22-0.78,4.3-1.8,6.66-2.35
			c2.83-0.65,5.6-0.61,8.31-0.29c1.35,0.16,3.14-0.06,4.35,1.29c0.29,0.32,1.18,0.09,1.8,0.12c0.34,0.35,0.83,0.41,1.24,0.61
			l-0.01-0.01c1.77,1.24,3.63,2.34,5.24,3.83c2.36,2.17,3.93,4.86,5.33,7.67l-0.01-0.01c0.37,0.86,0.46,1.81,0.88,2.65
			c0.93,4.19,1.07,8.38-0.04,12.56c-0.49,2.19-1.55,4.14-2.56,6.11c-5.51,7.56-12.73,13.5-19.19,20.17
			c-5.99,6.19-12.16,12.22-18.26,18.3c-3.87,3.86-7.69,7.76-11.66,11.52c-4.96,4.83-9.66,9.93-14.86,14.5
			c-5.09,4.47-10.69,8.21-16.78,11.24c-4.26,2.11-8.61,3.94-13.14,5.36c-3.73,0.97-7.44,1.99-11.26,2.58
			c-2.54,0.39-5.06,0.74-7.57,0.72c0.43,0.1,0.97-0.14,1.43,0.18c-0.82,0.59-1.75,0.21-2.62,0.29c-0.6,0.05-1.2,0.01-1.75,0.31
			c-2.4-0.39-4.78,0-7.17,0.12c-0.36,0.02-0.71,0.04-1.07,0.04c-2.04-0.39-4.11,0.09-6.16-0.14c0.08,0.07,0.25,0.09,0.15,0.27
			c-1.01,0.72-2.21,0.41-3.29,0.45c-3.28,0.11-6.56,0.42-9.85,0.38c-2.88-0.04-5.7,0.76-8.59,0.61c-4.65,0.32-9.31,0.32-13.72,0.62
			c0.6,0.12,1.45-0.11,2.29-0.13c0.6-0.02,1.25-0.19,1.77,0.3c-1.84,0.65-3.74,0.14-5.61,0.29c-1.17-0.38-2.35,0.01-3.52,0
			c-4.9-0.02-9.77,0.67-14.67,0.69c-0.55,0.15-1.17,0.26-1.67,0.18c-2.27-0.36-3.61,0.95-5.01,2.4c-1.75,1.81-3.45,3.66-5.38,5.29
			c-0.78,0.05-1.2-0.54-1.66-1c-21.65-21.64-43.29-43.28-64.94-64.92c-0.29-0.29-0.59-0.58-0.82-0.93c-0.49-0.73-0.3-1.29,0.31-1.9
			c6.78-6.74,13.45-13.6,20.33-20.23c4.12-3.97,8.84-7.22,13.7-10.22l-0.01,0.01c0.68-0.5,1.56-0.64,2.18-1.25l-0.01,0
			c2.42-1.38,4.95-2.54,7.46-3.73l-0.01,0.01c3.31-1.44,6.72-2.63,10.17-3.67c1.72-0.59,3.58-0.68,5.26-1.44
			c3.27-0.37,6.47-1.2,9.77-1.31c1.34-0.05,2.65-0.41,3.99-0.41c0.31-0.1,0.63-0.2,0.94-0.3c0.14,0.14,0.29,0.25,0.46,0.35
			c0.66,0.19,1.33,0.13,2,0.13c15.23,0,30.45,0,45.68,0c0.67,0,1.34,0.06,2-0.13C184.2,185.39,184.36,185.27,184.5,185.13z"/>
		<path class="st2" d="M238.49,185.35c-0.74-0.04-1.29,0.52-2.03,0.63c-0.79,0.11-0.67,1.01-0.67,1.68
			c0.01,11.07-0.06,22.14,0.06,33.2c0.02,2.25-0.57,3.84-2.25,5.33c-2.43,2.16-4.69,4.53-6.92,6.9c-0.98,1.04-2.07,0.65-3.16,0.65
			c-0.31,0-0.39-0.28-0.42-0.55c-0.17-1.64-0.71-3.21-0.7-4.89c0.02-18.1-0.01-36.2-0.02-54.3c0-4.03-0.04-3.94-3.73-5.65
			c-4.7-2.17-9.19-4.72-13.41-7.73c-1.47-0.42-2.66-1.33-3.8-2.28c-4.74-3.96-9.02-8.34-12.59-13.4c-0.57-0.81-1.08-1.64-1.57-2.49
			c-2.65-4.69,0.6-11.24,6.95-11.3c2.8-0.03,4.93,1.68,6.53,3.94c1.4,1.98,2.86,3.92,4.7,6.07c-1.03-3.47-2.08-6.51-3.43-9.46
			c-3.77-8.27-8.7-15.73-15.4-21.94c-6.6-6.11-14.18-10.48-22.84-12.98c-4.74-1.37-9.58-1.93-14.5-2.31
			c-3.28-0.25-6.49,0.12-9.74,0.12c-1.65,0-1.7-0.1-1.52-1.79c0.11-1.03,0.73-1.8,1.09-2.7c1.3-2.12,3.26-3.36,5.66-3.68
			c7.69-1.05,15.35-0.74,22.95,0.9c2.5,0.73,4.96,1.55,7.43,2.36c0.73,0.24,1.46,0.49,2.16,0.81c2.78,0.9,5.3,2.33,7.77,3.85
			c2.67,1.52,5.21,3.23,7.49,5.31c1.13,0.52,1.74,1.68,2.8,2.29c4.67,4.32,8.39,9.37,11.55,14.87c3.06,5.32,5,11.11,6.85,16.89
			c0.97,3.04,1.69,6.22,2.03,9.46c0.25,2.42,0.86,4.8,0.89,7.27c0.01,0.77,0.36,1.58,1.28,1.92c0.71,0.27,1.43,0.58,2.03,1.03
			c0.64,0.47,1.3,1.11,2.05,0.73c0.82-0.43,0.34-1.4,0.35-2.11c0.04-6.98-0.08-13.97,0.1-20.95c0.1-3.72,0.17-7.44,0.24-11.16
			c0.03-1.58-0.21-3.09-0.72-4.56c-0.36-0.66-0.4-1.38-0.4-2.11c0-9.57-0.01-19.14,0.01-28.71c0.01-2.95,0.87-5.57,3.5-7.19
			c5.25-3.24,11.45,0.2,11.61,6.46c0.1,3.88,0.02,7.76,0.02,11.64c0,0.52-0.01,1.03,0.01,1.89c2.31-4.62,4.13-9.1,5.57-13.74
			c2.27-7.36,3.03-14.91,2.49-22.55c-0.54-7.66-2.71-14.91-6.27-21.76c-3.63-6.98-8.56-12.89-14.26-18.23
			c-1.04-0.97-0.98-1.25,0.37-1.85c1.03-0.46,1.82-1.36,2.94-1.67c2.81-0.37,5.15,0.65,7.23,2.43c4.42,3.77,8.17,8.14,11.64,12.78
			c0.61,0.81,1.17,1.66,1.6,2.58c0.58,1.01,1.16,2.02,1.75,3.03c1.1,1.3,1.64,2.88,2.31,4.41c3.48,8.06,5.02,16.49,4.95,25.24
			c-0.27,2.5-0.35,5.02-0.72,7.51c-0.62,4.2-1.65,8.28-3.11,12.26c-0.77,2.08-1.55,4.16-2.41,6.2c-0.57,1.1-1.12,2.2-1.65,3.32
			c-1.66,2.85-3.32,5.7-4.97,8.56c-0.18,0.28-0.3,0.61-0.6,0.81c-2.11,2.6-3.93,5.44-6.16,7.95c-0.75,0.84-0.87,1.93-0.87,3.05
			c0.02,16.45,0.01,32.89,0.02,49.34c0,0.45,0.08,0.9,0.09,1.35c0.02,1.73,0.02,1.73,1.63,0.81c0.68-0.26,1.44-0.28,2.05-0.74
			l-0.03,0.01c0.64-0.54,1.28-1.06,1.93-1.59c0.42-0.3,0.83-0.61,1.27-0.87c0.79-0.47,1.13-1.05,0.89-2.04
			c-0.44-1.87,0.08-3.79-0.07-5.68c0-0.79,0.02-1.57,0.35-2.3c0.27-3.85,0.48-7.74,1.51-11.46c0.98-3.51,1.27-7.2,2.77-10.58
			c1-1.18,1.09-2.77,1.86-4.05c0.48-2.01,1.09-3.97,2.44-5.61c0.37-0.09,0.77-0.3,0.8-0.64c0.13-1.17,1.07-1.82,1.59-2.74
			c0.32-0.47,0.54-1.02,0.98-1.41c1.61-2.44,3.35-4.78,5.15-7.08c0.92-1.12,1.38-2.55,2.42-3.59c6.2-6.16,13.38-10.76,21.64-13.7
			c6.94-2.47,14.11-3.44,21.42-3.68c1.65-0.05,3.3-0.06,4.93,0.32c3.41,0.79,5.7,2.76,6.69,6.16c0.44,1.32-0.25,1.65-1.4,1.67
			c-2.58,0.05-5.16-0.01-7.74,0.26c-5.06,0.53-10,1.54-14.82,3.19c-9.41,3.22-17.41,8.6-24.01,15.99
			c-5.46,6.11-9.53,13.12-12.35,20.83c-1.71,4.68-2.84,9.51-3.76,14.39c-0.11,0.6-0.16,1.2-0.26,2.03
			c3.64-4.27,6.29-8.83,8.11-13.88c0.37-1.02,0.63-2.08,1.05-3.08c1.14-2.76,3.16-4.46,6.16-4.78c3-0.31,5.56,0.62,7.22,3.26
			c1.09,1.74,1.65,3.64,1.17,5.77c-1.03,4.59-2.95,8.81-5.18,12.92c-2.35,4.34-5.23,8.31-8.68,11.86c-0.77,0.79-1.6,1.39-2.66,1.68
			c-0.02,0.07-0.04,0.14-0.06,0.21c-0.86,0.59-1.66,1.24-2.41,1.97c-0.96,0.56-1.52,1.61-2.55,2.09c-0.2,0.21-0.4,0.42-0.6,0.63
			c-3.13,2.31-6.29,4.57-9.69,6.49C243.75,182.48,241.09,183.86,238.49,185.35z"/>
		<path class="st3" d="M60.01,229.49c7.69,7.67,15.4,15.32,23.08,23c14.27,14.26,28.53,28.53,42.79,42.79
			c0.36,0.36,0.78,0.67,1.17,1c0.18,0.15,0.49,0.05,0.62,0.3c0,0.1,0.02,0.2,0.04,0.3c0.24,0.46,0.63,0.82,0.91,1.26
			c3.05,4.02,2.94,11.08,0.01,14.88c-0.59,0.77-1.14,1.61-2.15,1.92c-0.82-0.95-2.01-1.25-3.1-1.68
			c-9.33-3.68-18.63-7.43-27.94-11.15c-10.13-4.05-20.24-8.12-30.38-12.13c-9.23-3.65-18.42-7.4-27.66-11.03
			c-4.86-1.91-9.71-3.84-14.53-5.82c-0.33-0.24-0.69-0.29-1.07-0.12c-0.62-0.55-1.27-1.07-2.06-1.34c-3.83-1.31-5.09-4.52-5.6-8.02
			c-0.67-4.6,1.04-8.43,4.35-11.7c7.39-7.29,14.82-14.55,21.99-22.05c4.92-5.15,11.94-6.3,17.86-2.11c0.13,0.09,0.27,0.15,0.41,0.22
			C59.66,228.07,59.5,229.07,60.01,229.49z"/>
		<path class="st4" d="M139.13,90.08c-0.05,1.14-1.06,1.99-0.93,3.23c0.07,0.69,0.12,0.99,0.95,0.9c1.69-0.19,3.39-0.32,5.09-0.32
			c8.99-0.01,17.79,1.16,26.11,4.74c5.18,2.23,9.95,5.2,14.3,8.84c5.15,4.32,9.5,9.34,12.99,15.04c2.93,4.79,5.51,9.81,7.14,15.24
			c0.39,1.31,1.04,2.55,1.2,4.36c-2.29-2.11-3.8-4.37-5.37-6.56c-1.2-1.68-2.65-2.93-4.62-3.7c-3.02-1.17-7.45,1.01-8.72,4.3
			c-1.17,3.04-0.23,5.57,1.47,7.98c4,5.68,8.75,10.66,14.25,14.92c0.72,0.56,1.5,1.06,2.25,1.58c-6.41,0.33-12.81,0.22-19.2-0.34
			c-4.71-0.95-9.41-1.85-13.93-3.62c-11.49-4.49-20.03-12.23-25.75-23.08c-5.2-9.85-7.69-20.44-8.48-31.51
			c-0.19-2.69-0.42-5.35-0.23-8.04C137.76,92.58,138.03,91.17,139.13,90.08z"/>
		<path class="st4" d="M227.65,17.5c-1.21,0.86-2.38,1.78-4.01,2.27c15.15,13.58,23.09,30.17,21.66,50.61
			c-0.69,9.92-3.91,19.17-8.95,27.87c0-1.36,0-2.72,0-4.08c0-3.52,0.03-7.03-0.01-10.55c-0.04-3.53-2.39-6.33-5.82-7.08
			c-2.98-0.64-6.34,1.12-7.74,4.12c-0.55,1.18-0.7,2.46-0.7,3.76c-0.01,10.29-0.02,20.58-0.04,30.87
			c-8.78-7.58-16.23-16.18-20.85-26.97c-3.13-7.31-4.44-14.98-3.78-22.86c0.81-9.54,4.27-18.25,9.29-26.34
			c4.19-6.75,9.22-12.83,14.97-18.31C223.35,19.22,225.44,18.22,227.65,17.5z"/>
		<path class="st4" d="M261.84,169.97c3.03-2.06,5.21-4.94,7.28-7.87c4.08-5.77,7.5-11.92,8.8-18.93c1.01-5.44-3.53-9.09-8.36-8.25
			c-2.83,0.49-4.73,2.24-5.56,4.99c-1.74,5.8-4.51,11.04-8.3,15.74c-0.32,0.4-0.66,0.79-1.01,1.17c-0.09,0.1-0.27,0.11-0.55,0.22
			c0.4-3.85,1.25-7.53,2.2-11.17c1.62-6.23,4.1-12.12,7.4-17.63c5.58-9.3,13.04-16.73,22.61-21.92c6.35-3.44,13.17-5.51,20.31-6.57
			c3.64-0.54,7.29-0.69,10.95-0.61c0.97,0.02,1.48-0.24,1.38-1.27c0.59,1.15,0.43,2.43,0.49,3.63c0.65,13.17-0.81,26.01-6.18,38.21
			c-0.56,1.28-1.21,2.51-1.82,3.77c-0.34,0.52-0.55,1.11-0.93,1.6l0,0c-0.4,0.47-0.53,1.11-0.97,1.55c-0.63,0.38-1.31,0.72-1.56,1.5
			c-0.21,0.67-0.94,0.99-1.14,1.67c-0.57,0.69-1.3,1.24-1.68,2.07l0.01-0.01c-1.64,1.89-3.32,3.73-5.28,5.3
			c-0.09,0.1-0.18,0.2-0.27,0.3c-0.72,0.52-1.43,1.06-2.12,1.62l-0.01,0.01c-2.88,2.21-5.96,4.06-9.34,5.43
			c-0.97,0.39-2,0.7-2.87,1.33c-1.73,0.5-3.46,1.02-5.2,1.5c-2.67,0.73-5.34,1.39-8.11,1.74
			C268.63,169.49,265.27,170.02,261.84,169.97z"/>
		<path class="st5" d="M22.74,272.67c4.16,1.65,8.33,3.28,12.49,4.95c8.85,3.55,17.68,7.13,26.53,10.65
			c7.56,3.01,15.16,5.95,22.72,8.96c7.66,3.05,15.29,6.16,22.95,9.23c6.12,2.46,12.25,4.9,18.38,7.32c0.58,0.23,1.08,0.39,0.67,1.15
			c-0.77,1.36-1.99,2.34-3.03,3.46c-1.15,1.23-2.32,2.44-3.49,3.66c-0.54,0.22-0.87,0.67-1.17,1.14c-1.93,2.9-4.46,5.22-7.15,7.37
			c-1.46,1.16-2.69,2.54-4.01,3.84c-1.8,1.77-3.64,3.49-5.54,5.14c-1.2,1.05-2.59,1.81-4.21,2.04c-4.63,0.96-8.72,0.24-12.23-3.3
			c-15.49-15.59-31.05-31.1-46.58-46.65c-0.29-0.29-0.54-0.62-0.81-0.93c-0.36-0.79-1.13-1.19-1.71-1.77
			c-4.23-4.24-8.47-8.47-12.71-12.71c-0.83-0.83-1.37-1.81-1.48-2.98C22.33,273,22.2,272.57,22.74,272.67z"/>
		<path class="st6" d="M190.71,233.56c-0.79-0.25-1.6-0.33-2.44-0.33c-3.88,0.02-7.76,0.11-11.63-0.01
			c-9.29-0.29-18.58-0.28-27.87-0.3c-5.16-0.01-6.66-4.38-4.96-7.36c0.82-1.42,2.07-2.26,3.79-2.26c5.74,0.01,11.49-0.24,17.21,0.06
			c8.68,0.46,17.35-0.11,26.01,0.32c5.37,0.26,10.73,0.11,16.09,0.24c0.53,0.01,1.03,0.05,1.49,0.32c-0.8,1.78-2.42,2.84-3.77,4.12
			c-0.95,0.9-2.03,1.73-3.37,2.08c-2.52,0.61-4.78,2.1-7.46,2.18c-0.14,0.17-0.21,0.39-0.38,0.53c-0.63,0.5-1.37,0.37-2.09,0.39
			C191.13,233.55,190.92,233.55,190.71,233.56z"/>
		<path class="st7" d="M291.62,168.67c0.35,0.55-0.03,0.88-0.4,1.16c-3.58,2.7-6.46,6.14-9.63,9.28c-3.4,3.37-6.81,6.72-10.17,10.14
			c-5.65,5.75-11.36,11.44-17.06,17.14c-4.68,4.68-9.39,9.34-14.09,14.02c-1.1,1.09-2.16,2.21-3.25,3.31
			c-0.73,0.73-0.65,0.07-0.68-0.4c0.59-0.64,1.16-1.31,1.78-1.92c15.05-15.06,30.11-30.12,45.17-45.18
			C285.95,173.56,288.5,170.8,291.62,168.67z"/>
		<path class="st8" d="M275.17,249.7c3.16-3.35,6.52-6.52,9.79-9.76c2.26-2.23,4.46-4.53,6.76-6.73c3.6-3.45,7.01-7.1,10.53-10.63
			c1.48-1.49,3.05-2.89,4.55-4.37c4.54-4.52,9.1-9.02,13.58-13.6c1.39-1.42,2.57-3.05,3.85-4.59c0.09,0.07,0.12,0.14,0.09,0.21
			c-0.03,0.07-0.05,0.11-0.08,0.11c-1.39,2.38-3.27,4.36-5.21,6.29c-14.02,14-28.03,28.02-42.04,42.03
			c-0.47,0.47-0.99,0.9-1.48,1.35C275.18,250.11,275.09,249.99,275.17,249.7z"/>
		<path class="st9" d="M275.17,249.7c0.11,0.11,0.21,0.21,0.32,0.32c-1.33,1.51-2.68,3-4.32,4.19c-1.14,0.83-1.81,2.12-2.82,3.06
			c-4.03,3.76-7.81,7.8-12.3,11.05c-7.74,5.61-16.06,10.06-25.28,12.75c-0.08-0.07-0.11-0.15-0.09-0.22
			c0.02-0.08,0.05-0.11,0.08-0.11c2.33-1.04,4.87-1.52,7.19-2.63c4.53-2.17,9.02-4.37,13.29-7.06c8.65-5.45,15.34-13.06,22.55-20.1
			C274.23,250.5,274.71,250.11,275.17,249.7z"/>
		<path class="st10" d="M240.43,168.39c-0.48,0.59-1.19,0.73-1.85,0.98c-1.55,0.24-1.8-0.98-2.23-1.99
			c-0.04-4.14-0.11-8.27-0.11-12.41c-0.01-12.31,0.02-24.63-0.03-36.94c-0.01-1.77,0.42-3.21,1.65-4.49
			c1.87-1.95,3.4-4.17,4.99-6.33c0.27-0.37,0.45-0.83,0.94-0.99c0.21,0.22,0.18,0.44,0.01,0.67c-1.45,1.96-2.9,3.93-4.35,5.89
			c-0.35,0.57-0.88,0.99-1.25,1.54c-0.41,0.73-0.82,1.46-1.22,2.19c-0.28,0.43-0.16,0.9-0.16,1.36c-0.01,15.86-0.01,31.72,0,47.57
			c0,0.45-0.12,0.93,0.15,1.36C237.65,168.81,237.88,168.92,240.43,168.39z"/>
		<path class="st11" d="M201.27,230.44c2.77-1.61,5.09-3.75,7.14-6.2c2.47-3.28,3.97-6.87,4.77-10.98c1.96-10-3.5-19.86-11.39-24.58
			c-0.74-0.45-1.59-0.72-2.39-1.08c-0.06-0.28-0.01-0.44,0.32-0.32c3.65,1.33,6.46,3.79,8.9,6.71c4.3,5.13,5.82,11.17,5.33,17.71
			c-0.39,5.21-2.34,9.89-5.97,13.73c-1.73,1.83-3.44,3.71-5.74,4.89C201.9,230.5,201.63,230.67,201.27,230.44z"/>
		<path class="st12" d="M60.01,229.49c-0.72-0.25-0.6-1.21-1.27-1.5c0.84,0.08,1.3-0.53,1.81-1.04
			c6.15-6.14,12.29-12.29,18.44-18.43c4.1-4.1,8.8-7.45,13.61-10.64c0.46-0.31,1.04-0.44,1.56-0.65c-0.75,1.17-2.05,1.59-3.13,2.3
			c-4.02,2.61-7.81,5.53-11.23,8.87c-6.46,6.31-12.79,12.76-19.19,19.12C60,228.1,59.57,228.64,60.01,229.49z"/>
		<path class="st13" d="M97.87,341.58c2.49-0.86,4.56-2.37,6.32-4.29c3.6-3.93,7.78-7.24,11.57-10.96c1.06-1.05,2.15-2.07,2.92-3.37
			c0.19-0.17,0.4-0.18,0.6-0.02c-1.85,3.15-4.55,5.51-7.3,7.81c-1.14,0.96-2.03,2.15-3.08,3.2c-2.04,2.05-4.48,3.61-6.49,5.69
			C101.24,340.85,99.71,341.69,97.87,341.58z"/>
		<path class="st14" d="M22.74,272.67c-0.19,1.46,0.52,2.54,1.49,3.51c4.34,4.35,8.7,8.69,13.03,13.04
			c0.42,0.42,1.02,0.75,0.99,1.49c-3.2-2.48-5.81-5.57-8.7-8.36c-2.08-2.01-4.11-4.07-6.14-6.14c-0.88-0.89-1.68-1.84-1.62-3.22
			C21.93,272.37,22.21,272.14,22.74,272.67z"/>
		<path class="st15" d="M133.9,185.43c0-0.1,0-0.2,0.01-0.29c16.86,0,33.73,0,50.59,0c0,0.1,0.01,0.2,0.01,0.29
			c-0.54,0.44-1.18,0.31-1.79,0.31c-15.67,0.01-31.35,0.01-47.02,0C135.08,185.74,134.44,185.86,133.9,185.43z"/>
		<path class="st16" d="M236.97,166.81c-0.49-0.46-0.3-1.07-0.3-1.61c-0.01-15.69-0.01-31.38,0-47.07c0-0.54-0.2-1.15,0.3-1.61
			C236.97,133.28,236.97,150.04,236.97,166.81z"/>
		<path class="st17" d="M172.7,286.64c6.09-0.64,12.2-0.81,18.31-1.02c1.1-0.04,2.36,0.08,3.43-0.54c1.96-0.26,3.92-0.24,5.88-0.01
			c2.29-0.41,4.61-0.3,6.92-0.29c0.49,0,1.04-0.18,1.45,0.29c-3.8-0.01-7.63,0.09-11.39,0.44c-5.74,0.53-11.46,0.81-17.21,0.84
			c-0.5,0-1,0.19-1.5,0.3c-1.11,0.4-2.31-0.12-3.42,0.29c-0.83,0-1.65-0.01-2.48-0.01c-0.1-0.06-0.13-0.13-0.1-0.19
			C172.64,286.68,172.67,286.64,172.7,286.64z"/>
		<path class="st18" d="M250.61,94.09c1.44-3.75,2.98-7.47,4.06-11.35c1.24-4.44,1.89-8.97,2.25-13.56c0.03-0.41,0.13-0.81,0.2-1.21
			c0.12,3.87-0.44,7.65-1.19,11.44c-1.09,5.46-3.02,10.61-5.33,15.65C250.41,94.72,250.46,94.4,250.61,94.09z"/>
		<path class="st19" d="M193.51,232.92c0.1-0.1,0.2-0.2,0.31-0.3c-0.06,0.77,0.36,0.98,1.05,0.94c2.1-0.13,4.22,0.24,6.32-0.28
			c1.33-0.33,2.64,0.29,3.99,0.28c3.77-0.03,7.54,0,11.31,0c0,0.1,0.01,0.2,0.01,0.3c-0.32,0.23-0.7,0.15-1.05,0.15
			c-7.37,0-14.74,0-22.1,0c-0.36,0-0.72,0.07-1.06-0.14c-0.53-0.09-1.13,0.19-1.57-0.31c0.11-0.11,0.21-0.21,0.32-0.32
			C191.9,233.49,192.76,233.61,193.51,232.92z"/>
		<path class="st20" d="M230.76,280.73c0,0.11,0.01,0.22,0.01,0.34c-5.76,1.86-11.62,3.16-17.69,3.41c-0.6,0-1.21,0-1.81,0
			C217.94,284.08,224.35,282.39,230.76,280.73z"/>
		<path class="st21" d="M138.86,288.5c1.87-0.69,3.88-0.44,5.78-0.5c3.84-0.13,7.68-0.55,11.54-0.42c0.45,0.01,0.94-0.14,1.29,0.3
			c-3.81,0.53-7.67,0.04-11.47,0.64c-1.62,0.3-3.25,0.05-4.87,0.14c-0.55,0.03-1.12-0.15-1.65,0.15c-0.21,0-0.41,0-0.62,0
			c-0.1-0.07-0.14-0.14-0.1-0.21C138.8,288.53,138.83,288.5,138.86,288.5z"/>
		<path class="st22" d="M326.09,178.6c-1.25-1.24-1.72-2.98-2.76-4.38c-1.69-2.28-3.72-4.09-6.06-5.64
			c-0.63-0.41-1.41-0.69-1.74-1.47c3.92,1.74,6.86,4.57,9.04,8.2C325.19,176.34,325.96,177.33,326.09,178.6z"/>
		<path class="st23" d="M242.31,167.16c-0.57,0.51-1.13,1.05-1.91,1.24c2.68-3.05,3.78-6.65,3.73-10.66
			c-0.01-0.66,0.13-1.32,0.64-1.82c-0.06,0.9-0.12,1.79-0.18,2.69c-0.1,2.22,0.23,4.49-0.86,6.6
			C243.35,165.95,242.93,166.62,242.31,167.16z"/>
		<path class="st24" d="M138.86,288.5c0,0.1,0,0.21,0,0.31c-0.97,0.13-1.91,0.4-2.91,0.32c-0.72-0.05-1.29,0.33-1.77,0.82
			c-2.17,2.21-4.34,4.42-6.51,6.63c-0.21-0.1-0.41-0.2-0.62-0.3c2.06-2.01,4.2-3.93,6.14-6.04c1.22-1.32,2.5-2.02,4.29-1.75
			C137.93,288.55,138.4,288.5,138.86,288.5z"/>
		<path class="st25" d="M246.53,181.36c1.08-1.4,2.84-1.85,4.16-2.92c1.53-1.23,3.18-2.31,4.79-3.43c0.19-0.13,0.49-0.1,0.74-0.14
			c-0.95,1.56-2.66,2.18-4.02,3.24C250.48,179.46,248.67,180.72,246.53,181.36z"/>
		<path class="st26" d="M285.32,165.83c1.14-1.26,2.83-1.41,4.26-2.11c2.77-1.35,5.26-3.18,7.96-4.64
			c-0.72,1.59-2.38,2.09-3.68,2.89C291.2,163.61,288.35,164.95,285.32,165.83z"/>
		<path class="st27" d="M172.7,286.64c0,0.1,0,0.19,0,0.29c-2.33,0.57-4.7,0.27-7.05,0.32c-0.88,0.02-1.74,0.05-2.57,0.33
			c-1.53,0-3.07,0-4.6,0C163.21,286.92,167.96,286.76,172.7,286.64z"/>
		<path class="st28" d="M132.96,185.44c-0.71,0.43-1.5,0.63-2.32,0.61c-3.12-0.08-6.18,0.46-9.22,1.04
			c-0.82,0.16-1.62,0.18-2.43,0.22c-0.11,0.13-0.22,0.13-0.33-0.01c2.83-0.98,5.81-1.15,8.75-1.54c1.12-0.15,2.25-0.22,3.37-0.33
			C131.51,185.22,132.24,185.19,132.96,185.44L132.96,185.44z"/>
		<path class="st29" d="M326.7,194.13c0.96-4.35,0.98-8.69,0-13.04c0.11-0.11,0.21-0.11,0.32,0c1.32,4.35,1.34,8.7-0.02,13.04
			C326.9,194.23,326.8,194.23,326.7,194.13z"/>
		<path class="st30" d="M262.11,112.45c-1.75,2.39-3.5,4.79-5.25,7.18c-0.12-0.11-0.17-0.24-0.15-0.4c0.58-1.43,1.41-2.72,2.3-3.97
			c0.86-0.34,0.42-1.49,1.19-1.89C260.94,113.29,261.15,112.08,262.11,112.45z"/>
		<path class="st31" d="M177.36,90.74c-2.99-0.96-5.88-2.22-8.97-2.83c-0.33-0.07-0.53-0.31-0.65-0.61
			c3.26,0.43,6.29,1.61,9.32,2.81C177.21,90.29,177.56,90.39,177.36,90.74z"/>
		<path class="st32" d="M114.02,188.84c-3.53,0.81-6.75,2.52-10.25,3.42c2.21-1.57,4.87-2.09,7.34-3.03
			c0.96-0.36,1.94-0.66,2.91-0.99C114.21,188.44,114.2,188.64,114.02,188.84z"/>
		<path class="st33" d="M243.98,105.61c1.69-2.81,3.37-5.62,5.06-8.43c0.25,0.22,0.23,0.46,0.04,0.71c-1.35,2.37-2.7,4.74-4.04,7.12
			C244.74,105.32,244.65,105.97,243.98,105.61z"/>
		<path class="st34" d="M192.55,99.78c-2.34-1.96-4.84-3.69-7.45-5.27c-0.13-0.14-0.12-0.27,0.04-0.38
			c2.73,1.42,5.28,3.09,7.44,5.31c0.1,0.08,0.12,0.16,0.08,0.24C192.62,99.75,192.58,99.78,192.55,99.78z"/>
		<path class="st35" d="M199.73,187.29c-0.11,0.11-0.22,0.21-0.32,0.32c-2.44-1.38-5.17-1.54-7.87-1.86
			c-0.31-0.04-0.62-0.03-0.83-0.32C193.88,185.28,196.92,185.72,199.73,187.29z"/>
		<path class="st36" d="M185.13,94.13c-0.01,0.13-0.03,0.25-0.04,0.38c-2.49-1.43-4.95-2.93-7.73-3.78c-0.1-0.21-0.2-0.42-0.3-0.63
			C179.97,91,182.63,92.41,185.13,94.13z"/>
		<path class="st12" d="M103.78,192.26c-0.57,1.03-1.75,1-2.63,1.45c-1.58,0.81-3.09,1.79-4.83,2.28
			C98.56,194.24,101.07,193.05,103.78,192.26z"/>
		<path class="st37" d="M299.94,157.14c1.6-1.92,3.39-3.67,5.28-5.3C303.86,154.01,302.21,155.88,299.94,157.14z"/>
		<path class="st38" d="M326.7,194.13c0.1,0,0.2,0,0.31,0c-0.41,2.3-1.52,4.29-2.78,6.22c0-0.11,0-0.22-0.01-0.32
			C325.04,198.05,325.87,196.09,326.7,194.13z"/>
		<path class="st39" d="M262.11,112.45c-0.79,0-1.05,1.08-1.91,0.92c1.8-1.15,2.4-3.36,4.1-4.6
			C263.74,110.1,262.88,111.24,262.11,112.45z"/>
		<path class="st40" d="M114.02,188.84c0-0.2,0-0.4,0-0.6c1.6-0.08,3.01-1.07,4.64-0.95c0.11,0,0.22,0,0.33,0.01
			c-0.57,0.97-1.66,0.57-2.47,0.9C115.73,188.51,114.86,188.63,114.02,188.84z"/>
		<path class="st41" d="M255.93,120.88c-0.47,0.98-1.33,1.74-1.61,2.84c-0.1,0.41-0.5,0.61-0.97,0.49c0.87-1.33,1.44-2.84,2.54-4.03
			C256.1,120.41,256.09,120.64,255.93,120.88z"/>
		<path class="st42" d="M259.01,115.26c-0.72,1.35-1.44,2.71-2.16,4.06c-0.11,0.1-0.22,0.1-0.33-0.02
			C257.03,117.76,257.77,116.35,259.01,115.26z"/>
		<path class="st1" d="M139.48,288.81c2.15-0.66,4.35-0.14,6.52-0.29C143.86,289.16,141.65,288.66,139.48,288.81z"/>
		<path class="st43" d="M252.18,42.72c-0.77-1.47-1.54-2.94-2.31-4.41C251.26,39.46,251.83,41.03,252.18,42.72z"/>
		<path class="st44" d="M249.08,97.89c-0.01-0.24-0.03-0.47-0.04-0.71c0.53-1.03,1.05-2.07,1.58-3.1c0,0.32,0,0.64-0.01,0.96
			C250.03,95.96,249.86,97.09,249.08,97.89z"/>
		<path class="st45" d="M250.91,129.83c-0.49,1.41-0.6,3-1.86,4.05C249.74,132.56,249.78,130.94,250.91,129.83z"/>
		<path class="st46" d="M256.82,174.24c0.69-0.88,1.25-1.92,2.51-2.15c0.09,0.07,0.12,0.14,0.09,0.21
			c-0.03,0.07-0.06,0.11-0.09,0.11C258.58,173.13,258.06,174.17,256.82,174.24z"/>
		<path class="st47" d="M259.33,172.4c0-0.11,0-0.21,0-0.32c0.73-0.75,1.23-1.8,2.46-1.91C261.28,171.27,260.15,171.66,259.33,172.4
			z"/>
		<path class="st48" d="M192.55,99.78c0.01-0.11,0.02-0.23,0.03-0.34c1.15,0.59,2.07,1.42,2.81,2.47
			C194.13,101.61,193.61,100.34,192.55,99.78z"/>
		<path class="st26" d="M297.54,159.07c0.55-0.75,1.04-1.57,2.12-1.62C299.23,158.34,298.51,158.87,297.54,159.07z"/>
		<path class="st37" d="M305.21,151.86c-0.09-1.19,0.99-1.49,1.62-2.14c0.09,0.07,0.12,0.15,0.1,0.22
			c-0.03,0.08-0.05,0.12-0.08,0.12C306.42,150.77,305.99,151.47,305.21,151.86z"/>
		<path class="st49" d="M327.02,181.08c-0.11,0-0.21,0-0.32,0c-0.46-0.77-0.64-1.6-0.62-2.49
			C326.75,179.29,326.91,180.18,327.02,181.08z"/>
		<path class="st7" d="M293.17,167.74c0.08,1.31-0.67,1.23-1.55,0.93C292.08,168.27,292.51,167.81,293.17,167.74z"/>
		<path class="st50" d="M248.12,35.29c-0.65-0.79-1.27-1.59-1.6-2.58C247.41,33.34,248,34.17,248.12,35.29z"/>
		<path class="st16" d="M243.98,105.61c0.49,0.03,0.67-0.47,1.06-0.61c-0.15,0.8-0.58,1.41-1.23,1.88c0-0.22-0.01-0.45-0.01-0.67
			C243.85,106.02,243.92,105.82,243.98,105.61z"/>
		<path class="st1" d="M175.19,286.94c1.09-0.63,2.28-0.14,3.42-0.29C177.51,287.29,176.32,286.8,175.19,286.94z"/>
		<path class="st12" d="M96.33,195.98c-0.43,0.93-1.33,1.04-2.18,1.25C94.67,196.46,95.49,196.2,96.33,195.98z"/>
		<path class="st51" d="M306.84,150.06c0-0.11-0.01-0.23-0.01-0.34c0.11-0.75,0.6-1.22,1.2-1.6
			C308.07,149.04,307.22,149.4,306.84,150.06z"/>
		<path class="st52" d="M256.52,119.3c0.11,0.01,0.22,0.01,0.33,0.02c0,0.1,0.01,0.21,0.01,0.31c-0.31,0.42-0.62,0.84-0.92,1.26
			c-0.01-0.23-0.03-0.46-0.04-0.69C255.94,119.78,256.24,119.55,256.52,119.3z"/>
		<path class="st16" d="M238.2,114.33c0.11-0.76,0.69-1.15,1.25-1.54C239.38,113.58,238.8,113.96,238.2,114.33z"/>
		<path class="st53" d="M310.55,145.07c0.1-0.65,0.4-1.19,0.93-1.6C311.43,144.16,311.19,144.73,310.55,145.07z"/>
		<path class="st1" d="M132.96,185.44c-0.73-0.01-1.45-0.01-2.18-0.02C131.52,184.97,132.24,184.94,132.96,185.44z"/>
		<path class="st53" d="M309.58,146.62c0.15-0.62,0.39-1.19,0.97-1.55C310.48,145.74,310.24,146.31,309.58,146.62z"/>
		<path class="st24" d="M128.61,298.13c-0.5-0.28-0.92-0.61-0.91-1.26C128.17,297.18,128.6,297.5,128.61,298.13z"/>
		<path class="st54" d="M119.28,322.93c-0.2,0.01-0.4,0.02-0.6,0.02c0.29-0.5,0.62-0.93,1.28-0.9
			C119.74,322.35,119.51,322.64,119.28,322.93z"/>
		<path class="st22" d="M315.53,167.11c-0.53,0.04-1.01-0.04-1.24-0.61C314.78,166.54,315.22,166.71,315.53,167.11z"/>
		<path class="st55" d="M133.9,185.43c16.87,0,33.74,0,50.61,0c-0.1,0.77-0.7,0.62-1.2,0.62c-16.07,0-32.14,0-48.22,0
			C134.6,186.05,134,186.2,133.9,185.43z"/>
		<path class="st56" d="M192.28,233.87c8.07-0.01,16.14-0.01,24.21-0.02c-0.35,0.44-0.84,0.31-1.29,0.31
			c-7.21,0.01-14.41,0.01-21.62,0C193.13,234.17,192.63,234.3,192.28,233.87z"/>
		<path class="st57" d="M200.33,285.08c-1.96,0-3.92,0.01-5.88,0.01c-0.05-0.01-0.12,0-0.15-0.03c-0.06-0.05-0.09-0.13-0.14-0.19
			C196.22,284.84,198.29,284.47,200.33,285.08z"/>
		<path class="st58" d="M242.31,167.16c1.68-2.61,2.21-5.53,2.28-8.56c0.22,2.06-0.29,4.19,0.64,6.18c0.18,0.38-0.14,0.67-0.46,0.87
			C243.95,166.15,243.13,166.65,242.31,167.16z"/>
		<path class="st59" d="M236.35,167.38c0.63,0.79,1.11,1.75,2.23,1.99c-0.61,0.48-1.56,1.26-1.96,0.88
			C235.87,169.57,236.35,168.37,236.35,167.38z"/>
		<path class="st60" d="M193.51,232.92c-0.7,1.1-1.59,0.71-2.48,0.32C191.87,233.31,192.7,233.18,193.51,232.92z"/>
	</g>
</g>
</svg>
